%TF.GenerationSoftware,KiCad,Pcbnew,9.0.1*%
%TF.CreationDate,2025-07-07T08:11:32+05:30*%
%TF.ProjectId,BATTERY_CHARGING,42415454-4552-4595-9f43-48415247494e,rev?*%
%TF.SameCoordinates,Original*%
%TF.FileFunction,Soldermask,Top*%
%TF.FilePolarity,Negative*%
%FSLAX46Y46*%
G04 Gerber Fmt 4.6, Leading zero omitted, Abs format (unit mm)*
G04 Created by KiCad (PCBNEW 9.0.1) date 2025-07-07 08:11:32*
%MOMM*%
%LPD*%
G01*
G04 APERTURE LIST*
G04 Aperture macros list*
%AMRoundRect*
0 Rectangle with rounded corners*
0 $1 Rounding radius*
0 $2 $3 $4 $5 $6 $7 $8 $9 X,Y pos of 4 corners*
0 Add a 4 corners polygon primitive as box body*
4,1,4,$2,$3,$4,$5,$6,$7,$8,$9,$2,$3,0*
0 Add four circle primitives for the rounded corners*
1,1,$1+$1,$2,$3*
1,1,$1+$1,$4,$5*
1,1,$1+$1,$6,$7*
1,1,$1+$1,$8,$9*
0 Add four rect primitives between the rounded corners*
20,1,$1+$1,$2,$3,$4,$5,0*
20,1,$1+$1,$4,$5,$6,$7,0*
20,1,$1+$1,$6,$7,$8,$9,0*
20,1,$1+$1,$8,$9,$2,$3,0*%
G04 Aperture macros list end*
%ADD10C,1.600000*%
%ADD11C,1.218034*%
%ADD12RoundRect,0.175000X-0.425000X0.175000X-0.425000X-0.175000X0.425000X-0.175000X0.425000X0.175000X0*%
%ADD13RoundRect,0.190000X0.410000X-0.190000X0.410000X0.190000X-0.410000X0.190000X-0.410000X-0.190000X0*%
%ADD14RoundRect,0.200000X0.400000X-0.200000X0.400000X0.200000X-0.400000X0.200000X-0.400000X-0.200000X0*%
%ADD15RoundRect,0.175000X0.425000X-0.175000X0.425000X0.175000X-0.425000X0.175000X-0.425000X-0.175000X0*%
%ADD16RoundRect,0.190000X-0.410000X0.190000X-0.410000X-0.190000X0.410000X-0.190000X0.410000X0.190000X0*%
%ADD17RoundRect,0.200000X-0.400000X0.200000X-0.400000X-0.200000X0.400000X-0.200000X0.400000X0.200000X0*%
%ADD18O,1.700000X1.100000*%
%ADD19RoundRect,0.102000X-0.704000X-0.704000X0.704000X-0.704000X0.704000X0.704000X-0.704000X0.704000X0*%
%ADD20C,1.612000*%
%ADD21RoundRect,0.250000X-0.262500X-0.450000X0.262500X-0.450000X0.262500X0.450000X-0.262500X0.450000X0*%
%ADD22RoundRect,0.250000X0.475000X-0.250000X0.475000X0.250000X-0.475000X0.250000X-0.475000X-0.250000X0*%
%ADD23RoundRect,0.150000X-0.512500X-0.150000X0.512500X-0.150000X0.512500X0.150000X-0.512500X0.150000X0*%
%ADD24RoundRect,0.250000X-0.250000X-0.475000X0.250000X-0.475000X0.250000X0.475000X-0.250000X0.475000X0*%
%ADD25RoundRect,0.250000X0.250000X0.475000X-0.250000X0.475000X-0.250000X-0.475000X0.250000X-0.475000X0*%
%ADD26RoundRect,0.102000X0.704000X-0.704000X0.704000X0.704000X-0.704000X0.704000X-0.704000X-0.704000X0*%
%ADD27RoundRect,0.250000X-0.450000X0.262500X-0.450000X-0.262500X0.450000X-0.262500X0.450000X0.262500X0*%
%ADD28RoundRect,0.150000X-0.825000X-0.150000X0.825000X-0.150000X0.825000X0.150000X-0.825000X0.150000X0*%
%ADD29R,2.410000X3.300000*%
%ADD30R,2.700000X3.600000*%
%ADD31RoundRect,0.250000X0.450000X-0.262500X0.450000X0.262500X-0.450000X0.262500X-0.450000X-0.262500X0*%
%ADD32RoundRect,0.250000X0.262500X0.450000X-0.262500X0.450000X-0.262500X-0.450000X0.262500X-0.450000X0*%
%ADD33RoundRect,0.243750X-0.243750X-0.456250X0.243750X-0.456250X0.243750X0.456250X-0.243750X0.456250X0*%
G04 APERTURE END LIST*
D10*
X168800000Y-102000000D02*
G75*
G02*
X167200000Y-102000000I-800000J0D01*
G01*
X167200000Y-102000000D02*
G75*
G02*
X168800000Y-102000000I800000J0D01*
G01*
D11*
X168609017Y-115000000D02*
G75*
G02*
X167390983Y-115000000I-609017J0D01*
G01*
X167390983Y-115000000D02*
G75*
G02*
X168609017Y-115000000I609017J0D01*
G01*
X168609017Y-107000000D02*
G75*
G02*
X167390983Y-107000000I-609017J0D01*
G01*
X167390983Y-107000000D02*
G75*
G02*
X168609017Y-107000000I609017J0D01*
G01*
D10*
X168800000Y-120000000D02*
G75*
G02*
X167200000Y-120000000I-800000J0D01*
G01*
X167200000Y-120000000D02*
G75*
G02*
X168800000Y-120000000I800000J0D01*
G01*
D12*
%TO.C,J1*%
X128500000Y-116980000D03*
D13*
X128500000Y-119000000D03*
D14*
X128500000Y-120230000D03*
D15*
X128500000Y-117980000D03*
D16*
X128500000Y-115960000D03*
D17*
X128500000Y-114730000D03*
D18*
X128420000Y-113160000D03*
X124620000Y-113160000D03*
X128420000Y-121800000D03*
X124620000Y-121800000D03*
%TD*%
D19*
%TO.C,SW2*%
X157000000Y-120500000D03*
D20*
X159500000Y-120500000D03*
X162000000Y-120500000D03*
%TD*%
D21*
%TO.C,R7*%
X159087500Y-114500000D03*
X160912500Y-114500000D03*
%TD*%
D22*
%TO.C,C2*%
X164000000Y-113000000D03*
X164000000Y-111100000D03*
%TD*%
D23*
%TO.C,Q1*%
X143725000Y-110600000D03*
X143725000Y-111550000D03*
X143725000Y-112500000D03*
X146000000Y-112500000D03*
X146000000Y-111550000D03*
X146000000Y-110600000D03*
%TD*%
D21*
%TO.C,R5*%
X154587500Y-114500000D03*
X156412500Y-114500000D03*
%TD*%
D24*
%TO.C,C1*%
X129100000Y-102500000D03*
X131000000Y-102500000D03*
%TD*%
D23*
%TO.C,U2*%
X137500000Y-110600000D03*
X137500000Y-111550000D03*
X137500000Y-112500000D03*
X139775000Y-112500000D03*
X139775000Y-111550000D03*
X139775000Y-110600000D03*
%TD*%
D25*
%TO.C,C3*%
X151000000Y-112500000D03*
X149100000Y-112500000D03*
%TD*%
D23*
%TO.C,U3*%
X149000000Y-116100000D03*
X149000000Y-117050000D03*
X149000000Y-118000000D03*
X151275000Y-118000000D03*
X151275000Y-117050000D03*
X151275000Y-116100000D03*
%TD*%
D26*
%TO.C,SW1*%
X124000000Y-108000000D03*
D20*
X124000000Y-105500000D03*
X124000000Y-103000000D03*
%TD*%
D21*
%TO.C,R3*%
X142087500Y-102500000D03*
X143912500Y-102500000D03*
%TD*%
D27*
%TO.C,R1*%
X134000000Y-111087500D03*
X134000000Y-112912500D03*
%TD*%
D28*
%TO.C,U1*%
X133725000Y-101895000D03*
X133725000Y-103165000D03*
X133725000Y-104435000D03*
X133725000Y-105705000D03*
X138675000Y-105705000D03*
X138675000Y-104435000D03*
X138675000Y-103165000D03*
X138675000Y-101895000D03*
D29*
X136200000Y-103800000D03*
%TD*%
D30*
%TO.C,L1*%
X152200000Y-104500000D03*
X160500000Y-104500000D03*
%TD*%
D31*
%TO.C,R8*%
X146000000Y-117912500D03*
X146000000Y-116087500D03*
%TD*%
D32*
%TO.C,R6*%
X142912500Y-118500000D03*
X141087500Y-118500000D03*
%TD*%
D33*
%TO.C,D2*%
X141062500Y-121000000D03*
X142937500Y-121000000D03*
%TD*%
%TO.C,D1*%
X134062500Y-121000000D03*
X135937500Y-121000000D03*
%TD*%
D32*
%TO.C,R2*%
X130912500Y-105500000D03*
X129087500Y-105500000D03*
%TD*%
D24*
%TO.C,C4*%
X141550000Y-105500000D03*
X143450000Y-105500000D03*
%TD*%
D21*
%TO.C,R4*%
X134000000Y-118500000D03*
X135825000Y-118500000D03*
%TD*%
M02*
