%TF.GenerationSoftware,KiCad,Pcbnew,9.0.1*%
%TF.CreationDate,2025-07-07T08:11:32+05:30*%
%TF.ProjectId,BATTERY_CHARGING,42415454-4552-4595-9f43-48415247494e,rev?*%
%TF.SameCoordinates,Original*%
%TF.FileFunction,Legend,Top*%
%TF.FilePolarity,Positive*%
%FSLAX46Y46*%
G04 Gerber Fmt 4.6, Leading zero omitted, Abs format (unit mm)*
G04 Created by KiCad (PCBNEW 9.0.1) date 2025-07-07 08:11:32*
%MOMM*%
%LPD*%
G01*
G04 APERTURE LIST*
%ADD10C,0.100000*%
%ADD11C,0.125000*%
%ADD12C,0.150000*%
%ADD13C,0.120000*%
%ADD14C,0.127000*%
%ADD15C,0.200000*%
G04 APERTURE END LIST*
D10*
X166637217Y-99096895D02*
X166256265Y-99096895D01*
X166256265Y-99096895D02*
X166218169Y-99477847D01*
X166218169Y-99477847D02*
X166256265Y-99439752D01*
X166256265Y-99439752D02*
X166332455Y-99401657D01*
X166332455Y-99401657D02*
X166522931Y-99401657D01*
X166522931Y-99401657D02*
X166599122Y-99439752D01*
X166599122Y-99439752D02*
X166637217Y-99477847D01*
X166637217Y-99477847D02*
X166675312Y-99554038D01*
X166675312Y-99554038D02*
X166675312Y-99744514D01*
X166675312Y-99744514D02*
X166637217Y-99820704D01*
X166637217Y-99820704D02*
X166599122Y-99858800D01*
X166599122Y-99858800D02*
X166522931Y-99896895D01*
X166522931Y-99896895D02*
X166332455Y-99896895D01*
X166332455Y-99896895D02*
X166256265Y-99858800D01*
X166256265Y-99858800D02*
X166218169Y-99820704D01*
X166903884Y-99096895D02*
X167170551Y-99896895D01*
X167170551Y-99896895D02*
X167437217Y-99096895D01*
X168275312Y-99058800D02*
X167589598Y-100087371D01*
X168961026Y-99896895D02*
X168503883Y-99896895D01*
X168732455Y-99896895D02*
X168732455Y-99096895D01*
X168732455Y-99096895D02*
X168656264Y-99211180D01*
X168656264Y-99211180D02*
X168580074Y-99287371D01*
X168580074Y-99287371D02*
X168503883Y-99325466D01*
X169265788Y-99173085D02*
X169303884Y-99134990D01*
X169303884Y-99134990D02*
X169380074Y-99096895D01*
X169380074Y-99096895D02*
X169570550Y-99096895D01*
X169570550Y-99096895D02*
X169646741Y-99134990D01*
X169646741Y-99134990D02*
X169684836Y-99173085D01*
X169684836Y-99173085D02*
X169722931Y-99249276D01*
X169722931Y-99249276D02*
X169722931Y-99325466D01*
X169722931Y-99325466D02*
X169684836Y-99439752D01*
X169684836Y-99439752D02*
X169227693Y-99896895D01*
X169227693Y-99896895D02*
X169722931Y-99896895D01*
X169951503Y-99096895D02*
X170218170Y-99896895D01*
X170218170Y-99896895D02*
X170484836Y-99096895D01*
X126372419Y-101505639D02*
X126372419Y-101315163D01*
X126372419Y-101315163D02*
X126420038Y-101219925D01*
X126420038Y-101219925D02*
X126515276Y-101124687D01*
X126515276Y-101124687D02*
X126705752Y-101077068D01*
X126705752Y-101077068D02*
X127039085Y-101077068D01*
X127039085Y-101077068D02*
X127229561Y-101124687D01*
X127229561Y-101124687D02*
X127324800Y-101219925D01*
X127324800Y-101219925D02*
X127372419Y-101315163D01*
X127372419Y-101315163D02*
X127372419Y-101505639D01*
X127372419Y-101505639D02*
X127324800Y-101600877D01*
X127324800Y-101600877D02*
X127229561Y-101696115D01*
X127229561Y-101696115D02*
X127039085Y-101743734D01*
X127039085Y-101743734D02*
X126705752Y-101743734D01*
X126705752Y-101743734D02*
X126515276Y-101696115D01*
X126515276Y-101696115D02*
X126420038Y-101600877D01*
X126420038Y-101600877D02*
X126372419Y-101505639D01*
X126848609Y-100315163D02*
X126848609Y-100648496D01*
X127372419Y-100648496D02*
X126372419Y-100648496D01*
X126372419Y-100648496D02*
X126372419Y-100172306D01*
X126848609Y-99458020D02*
X126848609Y-99791353D01*
X127372419Y-99791353D02*
X126372419Y-99791353D01*
X126372419Y-99791353D02*
X126372419Y-99315163D01*
X126372419Y-111005639D02*
X126372419Y-110815163D01*
X126372419Y-110815163D02*
X126420038Y-110719925D01*
X126420038Y-110719925D02*
X126515276Y-110624687D01*
X126515276Y-110624687D02*
X126705752Y-110577068D01*
X126705752Y-110577068D02*
X127039085Y-110577068D01*
X127039085Y-110577068D02*
X127229561Y-110624687D01*
X127229561Y-110624687D02*
X127324800Y-110719925D01*
X127324800Y-110719925D02*
X127372419Y-110815163D01*
X127372419Y-110815163D02*
X127372419Y-111005639D01*
X127372419Y-111005639D02*
X127324800Y-111100877D01*
X127324800Y-111100877D02*
X127229561Y-111196115D01*
X127229561Y-111196115D02*
X127039085Y-111243734D01*
X127039085Y-111243734D02*
X126705752Y-111243734D01*
X126705752Y-111243734D02*
X126515276Y-111196115D01*
X126515276Y-111196115D02*
X126420038Y-111100877D01*
X126420038Y-111100877D02*
X126372419Y-111005639D01*
X127372419Y-110148496D02*
X126372419Y-110148496D01*
X126372419Y-110148496D02*
X127372419Y-109577068D01*
X127372419Y-109577068D02*
X126372419Y-109577068D01*
X166637217Y-104848609D02*
X166780074Y-104896228D01*
X166780074Y-104896228D02*
X166827693Y-104943847D01*
X166827693Y-104943847D02*
X166875312Y-105039085D01*
X166875312Y-105039085D02*
X166875312Y-105181942D01*
X166875312Y-105181942D02*
X166827693Y-105277180D01*
X166827693Y-105277180D02*
X166780074Y-105324800D01*
X166780074Y-105324800D02*
X166684836Y-105372419D01*
X166684836Y-105372419D02*
X166303884Y-105372419D01*
X166303884Y-105372419D02*
X166303884Y-104372419D01*
X166303884Y-104372419D02*
X166637217Y-104372419D01*
X166637217Y-104372419D02*
X166732455Y-104420038D01*
X166732455Y-104420038D02*
X166780074Y-104467657D01*
X166780074Y-104467657D02*
X166827693Y-104562895D01*
X166827693Y-104562895D02*
X166827693Y-104658133D01*
X166827693Y-104658133D02*
X166780074Y-104753371D01*
X166780074Y-104753371D02*
X166732455Y-104800990D01*
X166732455Y-104800990D02*
X166637217Y-104848609D01*
X166637217Y-104848609D02*
X166303884Y-104848609D01*
X167256265Y-105086704D02*
X167732455Y-105086704D01*
X167161027Y-105372419D02*
X167494360Y-104372419D01*
X167494360Y-104372419D02*
X167827693Y-105372419D01*
X168018170Y-104372419D02*
X168589598Y-104372419D01*
X168303884Y-105372419D02*
X168303884Y-104372419D01*
X168922932Y-104991466D02*
X169684837Y-104991466D01*
X169303884Y-105372419D02*
X169303884Y-104610514D01*
X167327693Y-122872419D02*
X166756265Y-122872419D01*
X167041979Y-122872419D02*
X167041979Y-121872419D01*
X167041979Y-121872419D02*
X166946741Y-122015276D01*
X166946741Y-122015276D02*
X166851503Y-122110514D01*
X166851503Y-122110514D02*
X166756265Y-122158133D01*
X167708646Y-121967657D02*
X167756265Y-121920038D01*
X167756265Y-121920038D02*
X167851503Y-121872419D01*
X167851503Y-121872419D02*
X168089598Y-121872419D01*
X168089598Y-121872419D02*
X168184836Y-121920038D01*
X168184836Y-121920038D02*
X168232455Y-121967657D01*
X168232455Y-121967657D02*
X168280074Y-122062895D01*
X168280074Y-122062895D02*
X168280074Y-122158133D01*
X168280074Y-122158133D02*
X168232455Y-122300990D01*
X168232455Y-122300990D02*
X167661027Y-122872419D01*
X167661027Y-122872419D02*
X168280074Y-122872419D01*
X168565789Y-121872419D02*
X168899122Y-122872419D01*
X168899122Y-122872419D02*
X169232455Y-121872419D01*
X169420038Y-117672306D02*
X169372419Y-117767544D01*
X169372419Y-117767544D02*
X169372419Y-117910401D01*
X169372419Y-117910401D02*
X169420038Y-118053258D01*
X169420038Y-118053258D02*
X169515276Y-118148496D01*
X169515276Y-118148496D02*
X169610514Y-118196115D01*
X169610514Y-118196115D02*
X169800990Y-118243734D01*
X169800990Y-118243734D02*
X169943847Y-118243734D01*
X169943847Y-118243734D02*
X170134323Y-118196115D01*
X170134323Y-118196115D02*
X170229561Y-118148496D01*
X170229561Y-118148496D02*
X170324800Y-118053258D01*
X170324800Y-118053258D02*
X170372419Y-117910401D01*
X170372419Y-117910401D02*
X170372419Y-117815163D01*
X170372419Y-117815163D02*
X170324800Y-117672306D01*
X170324800Y-117672306D02*
X170277180Y-117624687D01*
X170277180Y-117624687D02*
X169943847Y-117624687D01*
X169943847Y-117624687D02*
X169943847Y-117815163D01*
X170372419Y-117196115D02*
X169372419Y-117196115D01*
X169372419Y-117196115D02*
X170372419Y-116624687D01*
X170372419Y-116624687D02*
X169372419Y-116624687D01*
X170372419Y-116148496D02*
X169372419Y-116148496D01*
X169372419Y-116148496D02*
X169372419Y-115910401D01*
X169372419Y-115910401D02*
X169420038Y-115767544D01*
X169420038Y-115767544D02*
X169515276Y-115672306D01*
X169515276Y-115672306D02*
X169610514Y-115624687D01*
X169610514Y-115624687D02*
X169800990Y-115577068D01*
X169800990Y-115577068D02*
X169943847Y-115577068D01*
X169943847Y-115577068D02*
X170134323Y-115624687D01*
X170134323Y-115624687D02*
X170229561Y-115672306D01*
X170229561Y-115672306D02*
X170324800Y-115767544D01*
X170324800Y-115767544D02*
X170372419Y-115910401D01*
X170372419Y-115910401D02*
X170372419Y-116148496D01*
X151780074Y-120372419D02*
X151303884Y-120372419D01*
X151303884Y-120372419D02*
X151256265Y-120848609D01*
X151256265Y-120848609D02*
X151303884Y-120800990D01*
X151303884Y-120800990D02*
X151399122Y-120753371D01*
X151399122Y-120753371D02*
X151637217Y-120753371D01*
X151637217Y-120753371D02*
X151732455Y-120800990D01*
X151732455Y-120800990D02*
X151780074Y-120848609D01*
X151780074Y-120848609D02*
X151827693Y-120943847D01*
X151827693Y-120943847D02*
X151827693Y-121181942D01*
X151827693Y-121181942D02*
X151780074Y-121277180D01*
X151780074Y-121277180D02*
X151732455Y-121324800D01*
X151732455Y-121324800D02*
X151637217Y-121372419D01*
X151637217Y-121372419D02*
X151399122Y-121372419D01*
X151399122Y-121372419D02*
X151303884Y-121324800D01*
X151303884Y-121324800D02*
X151256265Y-121277180D01*
X152113408Y-120372419D02*
X152446741Y-121372419D01*
X152446741Y-121372419D02*
X152780074Y-120372419D01*
D11*
X131261905Y-121456119D02*
X131261905Y-120456119D01*
X131261905Y-120456119D02*
X131500000Y-120456119D01*
X131500000Y-120456119D02*
X131642857Y-120503738D01*
X131642857Y-120503738D02*
X131738095Y-120598976D01*
X131738095Y-120598976D02*
X131785714Y-120694214D01*
X131785714Y-120694214D02*
X131833333Y-120884690D01*
X131833333Y-120884690D02*
X131833333Y-121027547D01*
X131833333Y-121027547D02*
X131785714Y-121218023D01*
X131785714Y-121218023D02*
X131738095Y-121313261D01*
X131738095Y-121313261D02*
X131642857Y-121408500D01*
X131642857Y-121408500D02*
X131500000Y-121456119D01*
X131500000Y-121456119D02*
X131261905Y-121456119D01*
X132214286Y-120551357D02*
X132261905Y-120503738D01*
X132261905Y-120503738D02*
X132357143Y-120456119D01*
X132357143Y-120456119D02*
X132595238Y-120456119D01*
X132595238Y-120456119D02*
X132690476Y-120503738D01*
X132690476Y-120503738D02*
X132738095Y-120551357D01*
X132738095Y-120551357D02*
X132785714Y-120646595D01*
X132785714Y-120646595D02*
X132785714Y-120741833D01*
X132785714Y-120741833D02*
X132738095Y-120884690D01*
X132738095Y-120884690D02*
X132166667Y-121456119D01*
X132166667Y-121456119D02*
X132785714Y-121456119D01*
D12*
X126465180Y-114646666D02*
X125750895Y-114646666D01*
X125750895Y-114646666D02*
X125608038Y-114599047D01*
X125608038Y-114599047D02*
X125512800Y-114503809D01*
X125512800Y-114503809D02*
X125465180Y-114360952D01*
X125465180Y-114360952D02*
X125465180Y-114265714D01*
X125465180Y-115646666D02*
X125465180Y-115075238D01*
X125465180Y-115360952D02*
X126465180Y-115360952D01*
X126465180Y-115360952D02*
X126322323Y-115265714D01*
X126322323Y-115265714D02*
X126227085Y-115170476D01*
X126227085Y-115170476D02*
X126179466Y-115075238D01*
X157166667Y-117960800D02*
X157309524Y-118008419D01*
X157309524Y-118008419D02*
X157547619Y-118008419D01*
X157547619Y-118008419D02*
X157642857Y-117960800D01*
X157642857Y-117960800D02*
X157690476Y-117913180D01*
X157690476Y-117913180D02*
X157738095Y-117817942D01*
X157738095Y-117817942D02*
X157738095Y-117722704D01*
X157738095Y-117722704D02*
X157690476Y-117627466D01*
X157690476Y-117627466D02*
X157642857Y-117579847D01*
X157642857Y-117579847D02*
X157547619Y-117532228D01*
X157547619Y-117532228D02*
X157357143Y-117484609D01*
X157357143Y-117484609D02*
X157261905Y-117436990D01*
X157261905Y-117436990D02*
X157214286Y-117389371D01*
X157214286Y-117389371D02*
X157166667Y-117294133D01*
X157166667Y-117294133D02*
X157166667Y-117198895D01*
X157166667Y-117198895D02*
X157214286Y-117103657D01*
X157214286Y-117103657D02*
X157261905Y-117056038D01*
X157261905Y-117056038D02*
X157357143Y-117008419D01*
X157357143Y-117008419D02*
X157595238Y-117008419D01*
X157595238Y-117008419D02*
X157738095Y-117056038D01*
X158071429Y-117008419D02*
X158309524Y-118008419D01*
X158309524Y-118008419D02*
X158500000Y-117294133D01*
X158500000Y-117294133D02*
X158690476Y-118008419D01*
X158690476Y-118008419D02*
X158928572Y-117008419D01*
X159261905Y-117103657D02*
X159309524Y-117056038D01*
X159309524Y-117056038D02*
X159404762Y-117008419D01*
X159404762Y-117008419D02*
X159642857Y-117008419D01*
X159642857Y-117008419D02*
X159738095Y-117056038D01*
X159738095Y-117056038D02*
X159785714Y-117103657D01*
X159785714Y-117103657D02*
X159833333Y-117198895D01*
X159833333Y-117198895D02*
X159833333Y-117294133D01*
X159833333Y-117294133D02*
X159785714Y-117436990D01*
X159785714Y-117436990D02*
X159214286Y-118008419D01*
X159214286Y-118008419D02*
X159833333Y-118008419D01*
X158833333Y-112954819D02*
X158500000Y-112478628D01*
X158261905Y-112954819D02*
X158261905Y-111954819D01*
X158261905Y-111954819D02*
X158642857Y-111954819D01*
X158642857Y-111954819D02*
X158738095Y-112002438D01*
X158738095Y-112002438D02*
X158785714Y-112050057D01*
X158785714Y-112050057D02*
X158833333Y-112145295D01*
X158833333Y-112145295D02*
X158833333Y-112288152D01*
X158833333Y-112288152D02*
X158785714Y-112383390D01*
X158785714Y-112383390D02*
X158738095Y-112431009D01*
X158738095Y-112431009D02*
X158642857Y-112478628D01*
X158642857Y-112478628D02*
X158261905Y-112478628D01*
X159166667Y-111954819D02*
X159833333Y-111954819D01*
X159833333Y-111954819D02*
X159404762Y-112954819D01*
X163833333Y-109909580D02*
X163785714Y-109957200D01*
X163785714Y-109957200D02*
X163642857Y-110004819D01*
X163642857Y-110004819D02*
X163547619Y-110004819D01*
X163547619Y-110004819D02*
X163404762Y-109957200D01*
X163404762Y-109957200D02*
X163309524Y-109861961D01*
X163309524Y-109861961D02*
X163261905Y-109766723D01*
X163261905Y-109766723D02*
X163214286Y-109576247D01*
X163214286Y-109576247D02*
X163214286Y-109433390D01*
X163214286Y-109433390D02*
X163261905Y-109242914D01*
X163261905Y-109242914D02*
X163309524Y-109147676D01*
X163309524Y-109147676D02*
X163404762Y-109052438D01*
X163404762Y-109052438D02*
X163547619Y-109004819D01*
X163547619Y-109004819D02*
X163642857Y-109004819D01*
X163642857Y-109004819D02*
X163785714Y-109052438D01*
X163785714Y-109052438D02*
X163833333Y-109100057D01*
X164214286Y-109100057D02*
X164261905Y-109052438D01*
X164261905Y-109052438D02*
X164357143Y-109004819D01*
X164357143Y-109004819D02*
X164595238Y-109004819D01*
X164595238Y-109004819D02*
X164690476Y-109052438D01*
X164690476Y-109052438D02*
X164738095Y-109100057D01*
X164738095Y-109100057D02*
X164785714Y-109195295D01*
X164785714Y-109195295D02*
X164785714Y-109290533D01*
X164785714Y-109290533D02*
X164738095Y-109433390D01*
X164738095Y-109433390D02*
X164166667Y-110004819D01*
X164166667Y-110004819D02*
X164785714Y-110004819D01*
X144767261Y-109700057D02*
X144672023Y-109652438D01*
X144672023Y-109652438D02*
X144576785Y-109557200D01*
X144576785Y-109557200D02*
X144433928Y-109414342D01*
X144433928Y-109414342D02*
X144338690Y-109366723D01*
X144338690Y-109366723D02*
X144243452Y-109366723D01*
X144291071Y-109604819D02*
X144195833Y-109557200D01*
X144195833Y-109557200D02*
X144100595Y-109461961D01*
X144100595Y-109461961D02*
X144052976Y-109271485D01*
X144052976Y-109271485D02*
X144052976Y-108938152D01*
X144052976Y-108938152D02*
X144100595Y-108747676D01*
X144100595Y-108747676D02*
X144195833Y-108652438D01*
X144195833Y-108652438D02*
X144291071Y-108604819D01*
X144291071Y-108604819D02*
X144481547Y-108604819D01*
X144481547Y-108604819D02*
X144576785Y-108652438D01*
X144576785Y-108652438D02*
X144672023Y-108747676D01*
X144672023Y-108747676D02*
X144719642Y-108938152D01*
X144719642Y-108938152D02*
X144719642Y-109271485D01*
X144719642Y-109271485D02*
X144672023Y-109461961D01*
X144672023Y-109461961D02*
X144576785Y-109557200D01*
X144576785Y-109557200D02*
X144481547Y-109604819D01*
X144481547Y-109604819D02*
X144291071Y-109604819D01*
X145672023Y-109604819D02*
X145100595Y-109604819D01*
X145386309Y-109604819D02*
X145386309Y-108604819D01*
X145386309Y-108604819D02*
X145291071Y-108747676D01*
X145291071Y-108747676D02*
X145195833Y-108842914D01*
X145195833Y-108842914D02*
X145100595Y-108890533D01*
X155333333Y-113304819D02*
X155000000Y-112828628D01*
X154761905Y-113304819D02*
X154761905Y-112304819D01*
X154761905Y-112304819D02*
X155142857Y-112304819D01*
X155142857Y-112304819D02*
X155238095Y-112352438D01*
X155238095Y-112352438D02*
X155285714Y-112400057D01*
X155285714Y-112400057D02*
X155333333Y-112495295D01*
X155333333Y-112495295D02*
X155333333Y-112638152D01*
X155333333Y-112638152D02*
X155285714Y-112733390D01*
X155285714Y-112733390D02*
X155238095Y-112781009D01*
X155238095Y-112781009D02*
X155142857Y-112828628D01*
X155142857Y-112828628D02*
X154761905Y-112828628D01*
X156238095Y-112304819D02*
X155761905Y-112304819D01*
X155761905Y-112304819D02*
X155714286Y-112781009D01*
X155714286Y-112781009D02*
X155761905Y-112733390D01*
X155761905Y-112733390D02*
X155857143Y-112685771D01*
X155857143Y-112685771D02*
X156095238Y-112685771D01*
X156095238Y-112685771D02*
X156190476Y-112733390D01*
X156190476Y-112733390D02*
X156238095Y-112781009D01*
X156238095Y-112781009D02*
X156285714Y-112876247D01*
X156285714Y-112876247D02*
X156285714Y-113114342D01*
X156285714Y-113114342D02*
X156238095Y-113209580D01*
X156238095Y-113209580D02*
X156190476Y-113257200D01*
X156190476Y-113257200D02*
X156095238Y-113304819D01*
X156095238Y-113304819D02*
X155857143Y-113304819D01*
X155857143Y-113304819D02*
X155761905Y-113257200D01*
X155761905Y-113257200D02*
X155714286Y-113209580D01*
X129833333Y-100859580D02*
X129785714Y-100907200D01*
X129785714Y-100907200D02*
X129642857Y-100954819D01*
X129642857Y-100954819D02*
X129547619Y-100954819D01*
X129547619Y-100954819D02*
X129404762Y-100907200D01*
X129404762Y-100907200D02*
X129309524Y-100811961D01*
X129309524Y-100811961D02*
X129261905Y-100716723D01*
X129261905Y-100716723D02*
X129214286Y-100526247D01*
X129214286Y-100526247D02*
X129214286Y-100383390D01*
X129214286Y-100383390D02*
X129261905Y-100192914D01*
X129261905Y-100192914D02*
X129309524Y-100097676D01*
X129309524Y-100097676D02*
X129404762Y-100002438D01*
X129404762Y-100002438D02*
X129547619Y-99954819D01*
X129547619Y-99954819D02*
X129642857Y-99954819D01*
X129642857Y-99954819D02*
X129785714Y-100002438D01*
X129785714Y-100002438D02*
X129833333Y-100050057D01*
X130785714Y-100954819D02*
X130214286Y-100954819D01*
X130500000Y-100954819D02*
X130500000Y-99954819D01*
X130500000Y-99954819D02*
X130404762Y-100097676D01*
X130404762Y-100097676D02*
X130309524Y-100192914D01*
X130309524Y-100192914D02*
X130214286Y-100240533D01*
X137875595Y-108604819D02*
X137875595Y-109414342D01*
X137875595Y-109414342D02*
X137923214Y-109509580D01*
X137923214Y-109509580D02*
X137970833Y-109557200D01*
X137970833Y-109557200D02*
X138066071Y-109604819D01*
X138066071Y-109604819D02*
X138256547Y-109604819D01*
X138256547Y-109604819D02*
X138351785Y-109557200D01*
X138351785Y-109557200D02*
X138399404Y-109509580D01*
X138399404Y-109509580D02*
X138447023Y-109414342D01*
X138447023Y-109414342D02*
X138447023Y-108604819D01*
X138875595Y-108700057D02*
X138923214Y-108652438D01*
X138923214Y-108652438D02*
X139018452Y-108604819D01*
X139018452Y-108604819D02*
X139256547Y-108604819D01*
X139256547Y-108604819D02*
X139351785Y-108652438D01*
X139351785Y-108652438D02*
X139399404Y-108700057D01*
X139399404Y-108700057D02*
X139447023Y-108795295D01*
X139447023Y-108795295D02*
X139447023Y-108890533D01*
X139447023Y-108890533D02*
X139399404Y-109033390D01*
X139399404Y-109033390D02*
X138827976Y-109604819D01*
X138827976Y-109604819D02*
X139447023Y-109604819D01*
X152883333Y-112859580D02*
X152835714Y-112907200D01*
X152835714Y-112907200D02*
X152692857Y-112954819D01*
X152692857Y-112954819D02*
X152597619Y-112954819D01*
X152597619Y-112954819D02*
X152454762Y-112907200D01*
X152454762Y-112907200D02*
X152359524Y-112811961D01*
X152359524Y-112811961D02*
X152311905Y-112716723D01*
X152311905Y-112716723D02*
X152264286Y-112526247D01*
X152264286Y-112526247D02*
X152264286Y-112383390D01*
X152264286Y-112383390D02*
X152311905Y-112192914D01*
X152311905Y-112192914D02*
X152359524Y-112097676D01*
X152359524Y-112097676D02*
X152454762Y-112002438D01*
X152454762Y-112002438D02*
X152597619Y-111954819D01*
X152597619Y-111954819D02*
X152692857Y-111954819D01*
X152692857Y-111954819D02*
X152835714Y-112002438D01*
X152835714Y-112002438D02*
X152883333Y-112050057D01*
X153216667Y-111954819D02*
X153835714Y-111954819D01*
X153835714Y-111954819D02*
X153502381Y-112335771D01*
X153502381Y-112335771D02*
X153645238Y-112335771D01*
X153645238Y-112335771D02*
X153740476Y-112383390D01*
X153740476Y-112383390D02*
X153788095Y-112431009D01*
X153788095Y-112431009D02*
X153835714Y-112526247D01*
X153835714Y-112526247D02*
X153835714Y-112764342D01*
X153835714Y-112764342D02*
X153788095Y-112859580D01*
X153788095Y-112859580D02*
X153740476Y-112907200D01*
X153740476Y-112907200D02*
X153645238Y-112954819D01*
X153645238Y-112954819D02*
X153359524Y-112954819D01*
X153359524Y-112954819D02*
X153264286Y-112907200D01*
X153264286Y-112907200D02*
X153216667Y-112859580D01*
X149375595Y-114104819D02*
X149375595Y-114914342D01*
X149375595Y-114914342D02*
X149423214Y-115009580D01*
X149423214Y-115009580D02*
X149470833Y-115057200D01*
X149470833Y-115057200D02*
X149566071Y-115104819D01*
X149566071Y-115104819D02*
X149756547Y-115104819D01*
X149756547Y-115104819D02*
X149851785Y-115057200D01*
X149851785Y-115057200D02*
X149899404Y-115009580D01*
X149899404Y-115009580D02*
X149947023Y-114914342D01*
X149947023Y-114914342D02*
X149947023Y-114104819D01*
X150327976Y-114104819D02*
X150947023Y-114104819D01*
X150947023Y-114104819D02*
X150613690Y-114485771D01*
X150613690Y-114485771D02*
X150756547Y-114485771D01*
X150756547Y-114485771D02*
X150851785Y-114533390D01*
X150851785Y-114533390D02*
X150899404Y-114581009D01*
X150899404Y-114581009D02*
X150947023Y-114676247D01*
X150947023Y-114676247D02*
X150947023Y-114914342D01*
X150947023Y-114914342D02*
X150899404Y-115009580D01*
X150899404Y-115009580D02*
X150851785Y-115057200D01*
X150851785Y-115057200D02*
X150756547Y-115104819D01*
X150756547Y-115104819D02*
X150470833Y-115104819D01*
X150470833Y-115104819D02*
X150375595Y-115057200D01*
X150375595Y-115057200D02*
X150327976Y-115009580D01*
X122666667Y-110407200D02*
X122809524Y-110454819D01*
X122809524Y-110454819D02*
X123047619Y-110454819D01*
X123047619Y-110454819D02*
X123142857Y-110407200D01*
X123142857Y-110407200D02*
X123190476Y-110359580D01*
X123190476Y-110359580D02*
X123238095Y-110264342D01*
X123238095Y-110264342D02*
X123238095Y-110169104D01*
X123238095Y-110169104D02*
X123190476Y-110073866D01*
X123190476Y-110073866D02*
X123142857Y-110026247D01*
X123142857Y-110026247D02*
X123047619Y-109978628D01*
X123047619Y-109978628D02*
X122857143Y-109931009D01*
X122857143Y-109931009D02*
X122761905Y-109883390D01*
X122761905Y-109883390D02*
X122714286Y-109835771D01*
X122714286Y-109835771D02*
X122666667Y-109740533D01*
X122666667Y-109740533D02*
X122666667Y-109645295D01*
X122666667Y-109645295D02*
X122714286Y-109550057D01*
X122714286Y-109550057D02*
X122761905Y-109502438D01*
X122761905Y-109502438D02*
X122857143Y-109454819D01*
X122857143Y-109454819D02*
X123095238Y-109454819D01*
X123095238Y-109454819D02*
X123238095Y-109502438D01*
X123571429Y-109454819D02*
X123809524Y-110454819D01*
X123809524Y-110454819D02*
X124000000Y-109740533D01*
X124000000Y-109740533D02*
X124190476Y-110454819D01*
X124190476Y-110454819D02*
X124428572Y-109454819D01*
X125333333Y-110454819D02*
X124761905Y-110454819D01*
X125047619Y-110454819D02*
X125047619Y-109454819D01*
X125047619Y-109454819D02*
X124952381Y-109597676D01*
X124952381Y-109597676D02*
X124857143Y-109692914D01*
X124857143Y-109692914D02*
X124761905Y-109740533D01*
X142833333Y-101304819D02*
X142500000Y-100828628D01*
X142261905Y-101304819D02*
X142261905Y-100304819D01*
X142261905Y-100304819D02*
X142642857Y-100304819D01*
X142642857Y-100304819D02*
X142738095Y-100352438D01*
X142738095Y-100352438D02*
X142785714Y-100400057D01*
X142785714Y-100400057D02*
X142833333Y-100495295D01*
X142833333Y-100495295D02*
X142833333Y-100638152D01*
X142833333Y-100638152D02*
X142785714Y-100733390D01*
X142785714Y-100733390D02*
X142738095Y-100781009D01*
X142738095Y-100781009D02*
X142642857Y-100828628D01*
X142642857Y-100828628D02*
X142261905Y-100828628D01*
X143166667Y-100304819D02*
X143785714Y-100304819D01*
X143785714Y-100304819D02*
X143452381Y-100685771D01*
X143452381Y-100685771D02*
X143595238Y-100685771D01*
X143595238Y-100685771D02*
X143690476Y-100733390D01*
X143690476Y-100733390D02*
X143738095Y-100781009D01*
X143738095Y-100781009D02*
X143785714Y-100876247D01*
X143785714Y-100876247D02*
X143785714Y-101114342D01*
X143785714Y-101114342D02*
X143738095Y-101209580D01*
X143738095Y-101209580D02*
X143690476Y-101257200D01*
X143690476Y-101257200D02*
X143595238Y-101304819D01*
X143595238Y-101304819D02*
X143309524Y-101304819D01*
X143309524Y-101304819D02*
X143214286Y-101257200D01*
X143214286Y-101257200D02*
X143166667Y-101209580D01*
X132954819Y-112166666D02*
X132478628Y-112499999D01*
X132954819Y-112738094D02*
X131954819Y-112738094D01*
X131954819Y-112738094D02*
X131954819Y-112357142D01*
X131954819Y-112357142D02*
X132002438Y-112261904D01*
X132002438Y-112261904D02*
X132050057Y-112214285D01*
X132050057Y-112214285D02*
X132145295Y-112166666D01*
X132145295Y-112166666D02*
X132288152Y-112166666D01*
X132288152Y-112166666D02*
X132383390Y-112214285D01*
X132383390Y-112214285D02*
X132431009Y-112261904D01*
X132431009Y-112261904D02*
X132478628Y-112357142D01*
X132478628Y-112357142D02*
X132478628Y-112738094D01*
X132954819Y-111214285D02*
X132954819Y-111785713D01*
X132954819Y-111499999D02*
X131954819Y-111499999D01*
X131954819Y-111499999D02*
X132097676Y-111595237D01*
X132097676Y-111595237D02*
X132192914Y-111690475D01*
X132192914Y-111690475D02*
X132240533Y-111785713D01*
X135438095Y-99854819D02*
X135438095Y-100664342D01*
X135438095Y-100664342D02*
X135485714Y-100759580D01*
X135485714Y-100759580D02*
X135533333Y-100807200D01*
X135533333Y-100807200D02*
X135628571Y-100854819D01*
X135628571Y-100854819D02*
X135819047Y-100854819D01*
X135819047Y-100854819D02*
X135914285Y-100807200D01*
X135914285Y-100807200D02*
X135961904Y-100759580D01*
X135961904Y-100759580D02*
X136009523Y-100664342D01*
X136009523Y-100664342D02*
X136009523Y-99854819D01*
X137009523Y-100854819D02*
X136438095Y-100854819D01*
X136723809Y-100854819D02*
X136723809Y-99854819D01*
X136723809Y-99854819D02*
X136628571Y-99997676D01*
X136628571Y-99997676D02*
X136533333Y-100092914D01*
X136533333Y-100092914D02*
X136438095Y-100140533D01*
X148333333Y-101254819D02*
X147857143Y-101254819D01*
X147857143Y-101254819D02*
X147857143Y-100254819D01*
X149190476Y-101254819D02*
X148619048Y-101254819D01*
X148904762Y-101254819D02*
X148904762Y-100254819D01*
X148904762Y-100254819D02*
X148809524Y-100397676D01*
X148809524Y-100397676D02*
X148714286Y-100492914D01*
X148714286Y-100492914D02*
X148619048Y-100540533D01*
X144804819Y-117166666D02*
X144328628Y-117499999D01*
X144804819Y-117738094D02*
X143804819Y-117738094D01*
X143804819Y-117738094D02*
X143804819Y-117357142D01*
X143804819Y-117357142D02*
X143852438Y-117261904D01*
X143852438Y-117261904D02*
X143900057Y-117214285D01*
X143900057Y-117214285D02*
X143995295Y-117166666D01*
X143995295Y-117166666D02*
X144138152Y-117166666D01*
X144138152Y-117166666D02*
X144233390Y-117214285D01*
X144233390Y-117214285D02*
X144281009Y-117261904D01*
X144281009Y-117261904D02*
X144328628Y-117357142D01*
X144328628Y-117357142D02*
X144328628Y-117738094D01*
X144233390Y-116595237D02*
X144185771Y-116690475D01*
X144185771Y-116690475D02*
X144138152Y-116738094D01*
X144138152Y-116738094D02*
X144042914Y-116785713D01*
X144042914Y-116785713D02*
X143995295Y-116785713D01*
X143995295Y-116785713D02*
X143900057Y-116738094D01*
X143900057Y-116738094D02*
X143852438Y-116690475D01*
X143852438Y-116690475D02*
X143804819Y-116595237D01*
X143804819Y-116595237D02*
X143804819Y-116404761D01*
X143804819Y-116404761D02*
X143852438Y-116309523D01*
X143852438Y-116309523D02*
X143900057Y-116261904D01*
X143900057Y-116261904D02*
X143995295Y-116214285D01*
X143995295Y-116214285D02*
X144042914Y-116214285D01*
X144042914Y-116214285D02*
X144138152Y-116261904D01*
X144138152Y-116261904D02*
X144185771Y-116309523D01*
X144185771Y-116309523D02*
X144233390Y-116404761D01*
X144233390Y-116404761D02*
X144233390Y-116595237D01*
X144233390Y-116595237D02*
X144281009Y-116690475D01*
X144281009Y-116690475D02*
X144328628Y-116738094D01*
X144328628Y-116738094D02*
X144423866Y-116785713D01*
X144423866Y-116785713D02*
X144614342Y-116785713D01*
X144614342Y-116785713D02*
X144709580Y-116738094D01*
X144709580Y-116738094D02*
X144757200Y-116690475D01*
X144757200Y-116690475D02*
X144804819Y-116595237D01*
X144804819Y-116595237D02*
X144804819Y-116404761D01*
X144804819Y-116404761D02*
X144757200Y-116309523D01*
X144757200Y-116309523D02*
X144709580Y-116261904D01*
X144709580Y-116261904D02*
X144614342Y-116214285D01*
X144614342Y-116214285D02*
X144423866Y-116214285D01*
X144423866Y-116214285D02*
X144328628Y-116261904D01*
X144328628Y-116261904D02*
X144281009Y-116309523D01*
X144281009Y-116309523D02*
X144233390Y-116404761D01*
X138833333Y-118954819D02*
X138500000Y-118478628D01*
X138261905Y-118954819D02*
X138261905Y-117954819D01*
X138261905Y-117954819D02*
X138642857Y-117954819D01*
X138642857Y-117954819D02*
X138738095Y-118002438D01*
X138738095Y-118002438D02*
X138785714Y-118050057D01*
X138785714Y-118050057D02*
X138833333Y-118145295D01*
X138833333Y-118145295D02*
X138833333Y-118288152D01*
X138833333Y-118288152D02*
X138785714Y-118383390D01*
X138785714Y-118383390D02*
X138738095Y-118431009D01*
X138738095Y-118431009D02*
X138642857Y-118478628D01*
X138642857Y-118478628D02*
X138261905Y-118478628D01*
X139690476Y-117954819D02*
X139500000Y-117954819D01*
X139500000Y-117954819D02*
X139404762Y-118002438D01*
X139404762Y-118002438D02*
X139357143Y-118050057D01*
X139357143Y-118050057D02*
X139261905Y-118192914D01*
X139261905Y-118192914D02*
X139214286Y-118383390D01*
X139214286Y-118383390D02*
X139214286Y-118764342D01*
X139214286Y-118764342D02*
X139261905Y-118859580D01*
X139261905Y-118859580D02*
X139309524Y-118907200D01*
X139309524Y-118907200D02*
X139404762Y-118954819D01*
X139404762Y-118954819D02*
X139595238Y-118954819D01*
X139595238Y-118954819D02*
X139690476Y-118907200D01*
X139690476Y-118907200D02*
X139738095Y-118859580D01*
X139738095Y-118859580D02*
X139785714Y-118764342D01*
X139785714Y-118764342D02*
X139785714Y-118526247D01*
X139785714Y-118526247D02*
X139738095Y-118431009D01*
X139738095Y-118431009D02*
X139690476Y-118383390D01*
X139690476Y-118383390D02*
X139595238Y-118335771D01*
X139595238Y-118335771D02*
X139404762Y-118335771D01*
X139404762Y-118335771D02*
X139309524Y-118383390D01*
X139309524Y-118383390D02*
X139261905Y-118431009D01*
X139261905Y-118431009D02*
X139214286Y-118526247D01*
X138261905Y-121454819D02*
X138261905Y-120454819D01*
X138261905Y-120454819D02*
X138500000Y-120454819D01*
X138500000Y-120454819D02*
X138642857Y-120502438D01*
X138642857Y-120502438D02*
X138738095Y-120597676D01*
X138738095Y-120597676D02*
X138785714Y-120692914D01*
X138785714Y-120692914D02*
X138833333Y-120883390D01*
X138833333Y-120883390D02*
X138833333Y-121026247D01*
X138833333Y-121026247D02*
X138785714Y-121216723D01*
X138785714Y-121216723D02*
X138738095Y-121311961D01*
X138738095Y-121311961D02*
X138642857Y-121407200D01*
X138642857Y-121407200D02*
X138500000Y-121454819D01*
X138500000Y-121454819D02*
X138261905Y-121454819D01*
X139214286Y-120550057D02*
X139261905Y-120502438D01*
X139261905Y-120502438D02*
X139357143Y-120454819D01*
X139357143Y-120454819D02*
X139595238Y-120454819D01*
X139595238Y-120454819D02*
X139690476Y-120502438D01*
X139690476Y-120502438D02*
X139738095Y-120550057D01*
X139738095Y-120550057D02*
X139785714Y-120645295D01*
X139785714Y-120645295D02*
X139785714Y-120740533D01*
X139785714Y-120740533D02*
X139738095Y-120883390D01*
X139738095Y-120883390D02*
X139166667Y-121454819D01*
X139166667Y-121454819D02*
X139785714Y-121454819D01*
X129833333Y-107954819D02*
X129500000Y-107478628D01*
X129261905Y-107954819D02*
X129261905Y-106954819D01*
X129261905Y-106954819D02*
X129642857Y-106954819D01*
X129642857Y-106954819D02*
X129738095Y-107002438D01*
X129738095Y-107002438D02*
X129785714Y-107050057D01*
X129785714Y-107050057D02*
X129833333Y-107145295D01*
X129833333Y-107145295D02*
X129833333Y-107288152D01*
X129833333Y-107288152D02*
X129785714Y-107383390D01*
X129785714Y-107383390D02*
X129738095Y-107431009D01*
X129738095Y-107431009D02*
X129642857Y-107478628D01*
X129642857Y-107478628D02*
X129261905Y-107478628D01*
X130214286Y-107050057D02*
X130261905Y-107002438D01*
X130261905Y-107002438D02*
X130357143Y-106954819D01*
X130357143Y-106954819D02*
X130595238Y-106954819D01*
X130595238Y-106954819D02*
X130690476Y-107002438D01*
X130690476Y-107002438D02*
X130738095Y-107050057D01*
X130738095Y-107050057D02*
X130785714Y-107145295D01*
X130785714Y-107145295D02*
X130785714Y-107240533D01*
X130785714Y-107240533D02*
X130738095Y-107383390D01*
X130738095Y-107383390D02*
X130166667Y-107954819D01*
X130166667Y-107954819D02*
X130785714Y-107954819D01*
X145283333Y-105859580D02*
X145235714Y-105907200D01*
X145235714Y-105907200D02*
X145092857Y-105954819D01*
X145092857Y-105954819D02*
X144997619Y-105954819D01*
X144997619Y-105954819D02*
X144854762Y-105907200D01*
X144854762Y-105907200D02*
X144759524Y-105811961D01*
X144759524Y-105811961D02*
X144711905Y-105716723D01*
X144711905Y-105716723D02*
X144664286Y-105526247D01*
X144664286Y-105526247D02*
X144664286Y-105383390D01*
X144664286Y-105383390D02*
X144711905Y-105192914D01*
X144711905Y-105192914D02*
X144759524Y-105097676D01*
X144759524Y-105097676D02*
X144854762Y-105002438D01*
X144854762Y-105002438D02*
X144997619Y-104954819D01*
X144997619Y-104954819D02*
X145092857Y-104954819D01*
X145092857Y-104954819D02*
X145235714Y-105002438D01*
X145235714Y-105002438D02*
X145283333Y-105050057D01*
X146140476Y-105288152D02*
X146140476Y-105954819D01*
X145902381Y-104907200D02*
X145664286Y-105621485D01*
X145664286Y-105621485D02*
X146283333Y-105621485D01*
X131745833Y-118954819D02*
X131412500Y-118478628D01*
X131174405Y-118954819D02*
X131174405Y-117954819D01*
X131174405Y-117954819D02*
X131555357Y-117954819D01*
X131555357Y-117954819D02*
X131650595Y-118002438D01*
X131650595Y-118002438D02*
X131698214Y-118050057D01*
X131698214Y-118050057D02*
X131745833Y-118145295D01*
X131745833Y-118145295D02*
X131745833Y-118288152D01*
X131745833Y-118288152D02*
X131698214Y-118383390D01*
X131698214Y-118383390D02*
X131650595Y-118431009D01*
X131650595Y-118431009D02*
X131555357Y-118478628D01*
X131555357Y-118478628D02*
X131174405Y-118478628D01*
X132602976Y-118288152D02*
X132602976Y-118954819D01*
X132364881Y-117907200D02*
X132126786Y-118621485D01*
X132126786Y-118621485D02*
X132745833Y-118621485D01*
D13*
%TO.C,J1*%
X125670000Y-112810000D02*
X127370000Y-112810000D01*
X125670000Y-122150000D02*
X127370000Y-122150000D01*
D14*
%TO.C,SW2*%
X153700000Y-118500000D02*
X153700000Y-122500000D01*
X153700000Y-122500000D02*
X165300000Y-122500000D01*
X165300000Y-118500000D02*
X153700000Y-118500000D01*
X165300000Y-122500000D02*
X165300000Y-118500000D01*
D15*
X153100000Y-120500000D02*
G75*
G02*
X152900000Y-120500000I-100000J0D01*
G01*
X152900000Y-120500000D02*
G75*
G02*
X153100000Y-120500000I100000J0D01*
G01*
D13*
%TO.C,R7*%
X159772936Y-113765000D02*
X160227064Y-113765000D01*
X159772936Y-115235000D02*
X160227064Y-115235000D01*
%TO.C,C2*%
X163265000Y-112311252D02*
X163265000Y-111788748D01*
X164735000Y-112311252D02*
X164735000Y-111788748D01*
%TO.C,Q1*%
X144862500Y-109990000D02*
X144062500Y-109990000D01*
X144862500Y-109990000D02*
X145662500Y-109990000D01*
X144862500Y-113110000D02*
X144062500Y-113110000D01*
X144862500Y-113110000D02*
X145662500Y-113110000D01*
X143562500Y-110040000D02*
X143322500Y-109710000D01*
X143802500Y-109710000D01*
X143562500Y-110040000D01*
G36*
X143562500Y-110040000D02*
G01*
X143322500Y-109710000D01*
X143802500Y-109710000D01*
X143562500Y-110040000D01*
G37*
%TO.C,R5*%
X155272936Y-113765000D02*
X155727064Y-113765000D01*
X155272936Y-115235000D02*
X155727064Y-115235000D01*
%TO.C,C1*%
X129788748Y-101765000D02*
X130311252Y-101765000D01*
X129788748Y-103235000D02*
X130311252Y-103235000D01*
%TO.C,U2*%
X138637500Y-109990000D02*
X137837500Y-109990000D01*
X138637500Y-109990000D02*
X139437500Y-109990000D01*
X138637500Y-113110000D02*
X137837500Y-113110000D01*
X138637500Y-113110000D02*
X139437500Y-113110000D01*
X137337500Y-110040000D02*
X137097500Y-109710000D01*
X137577500Y-109710000D01*
X137337500Y-110040000D01*
G36*
X137337500Y-110040000D02*
G01*
X137097500Y-109710000D01*
X137577500Y-109710000D01*
X137337500Y-110040000D01*
G37*
%TO.C,C3*%
X150311252Y-111765000D02*
X149788748Y-111765000D01*
X150311252Y-113235000D02*
X149788748Y-113235000D01*
%TO.C,U3*%
X150137500Y-115490000D02*
X149337500Y-115490000D01*
X150137500Y-115490000D02*
X150937500Y-115490000D01*
X150137500Y-118610000D02*
X149337500Y-118610000D01*
X150137500Y-118610000D02*
X150937500Y-118610000D01*
X148837500Y-115540000D02*
X148597500Y-115210000D01*
X149077500Y-115210000D01*
X148837500Y-115540000D01*
G36*
X148837500Y-115540000D02*
G01*
X148597500Y-115210000D01*
X149077500Y-115210000D01*
X148837500Y-115540000D01*
G37*
D14*
%TO.C,SW1*%
X122000000Y-99700000D02*
X122000000Y-111300000D01*
X122000000Y-111300000D02*
X126000000Y-111300000D01*
X126000000Y-99700000D02*
X122000000Y-99700000D01*
X126000000Y-111300000D02*
X126000000Y-99700000D01*
D15*
X124100000Y-112000000D02*
G75*
G02*
X123900000Y-112000000I-100000J0D01*
G01*
X123900000Y-112000000D02*
G75*
G02*
X124100000Y-112000000I100000J0D01*
G01*
D13*
%TO.C,R3*%
X142772936Y-101765000D02*
X143227064Y-101765000D01*
X142772936Y-103235000D02*
X143227064Y-103235000D01*
%TO.C,R1*%
X133265000Y-111772936D02*
X133265000Y-112227064D01*
X134735000Y-111772936D02*
X134735000Y-112227064D01*
%TO.C,U1*%
X136200000Y-101240000D02*
X134250000Y-101240000D01*
X136200000Y-101240000D02*
X138150000Y-101240000D01*
X136200000Y-106360000D02*
X134250000Y-106360000D01*
X136200000Y-106360000D02*
X138150000Y-106360000D01*
X133500000Y-101335000D02*
X133260000Y-101005000D01*
X133740000Y-101005000D01*
X133500000Y-101335000D01*
G36*
X133500000Y-101335000D02*
G01*
X133260000Y-101005000D01*
X133740000Y-101005000D01*
X133500000Y-101335000D01*
G37*
%TO.C,L1*%
X151050000Y-99200000D02*
X161650000Y-99200000D01*
X151050000Y-102400000D02*
X151050000Y-99200000D01*
X151050000Y-109800000D02*
X151050000Y-106600000D01*
X161650000Y-99200000D02*
X161650000Y-102400000D01*
X161650000Y-106600000D02*
X161650000Y-109800000D01*
X161650000Y-109800000D02*
X151050000Y-109800000D01*
%TO.C,R8*%
X145265000Y-117227064D02*
X145265000Y-116772936D01*
X146735000Y-117227064D02*
X146735000Y-116772936D01*
%TO.C,R6*%
X142227064Y-117765000D02*
X141772936Y-117765000D01*
X142227064Y-119235000D02*
X141772936Y-119235000D01*
%TO.C,D2*%
X140315000Y-120040000D02*
X140315000Y-121960000D01*
X140315000Y-121960000D02*
X143000000Y-121960000D01*
X143000000Y-120040000D02*
X140315000Y-120040000D01*
%TO.C,D1*%
X133315000Y-120040000D02*
X133315000Y-121960000D01*
X133315000Y-121960000D02*
X136000000Y-121960000D01*
X136000000Y-120040000D02*
X133315000Y-120040000D01*
%TO.C,R2*%
X130227064Y-104765000D02*
X129772936Y-104765000D01*
X130227064Y-106235000D02*
X129772936Y-106235000D01*
%TO.C,C4*%
X142238748Y-104765000D02*
X142761252Y-104765000D01*
X142238748Y-106235000D02*
X142761252Y-106235000D01*
%TO.C,R4*%
X134685436Y-117765000D02*
X135139564Y-117765000D01*
X134685436Y-119235000D02*
X135139564Y-119235000D01*
%TD*%
M02*
