%TF.GenerationSoftware,KiCad,Pcbnew,9.0.1*%
%TF.CreationDate,2025-07-07T08:11:32+05:30*%
%TF.ProjectId,BATTERY_CHARGING,42415454-4552-4595-9f43-48415247494e,rev?*%
%TF.SameCoordinates,Original*%
%TF.FileFunction,Copper,L2,Bot*%
%TF.FilePolarity,Positive*%
%FSLAX46Y46*%
G04 Gerber Fmt 4.6, Leading zero omitted, Abs format (unit mm)*
G04 Created by KiCad (PCBNEW 9.0.1) date 2025-07-07 08:11:32*
%MOMM*%
%LPD*%
G01*
G04 APERTURE LIST*
%TA.AperFunction,HeatsinkPad*%
%ADD10O,1.700000X1.100000*%
%TD*%
%TA.AperFunction,ComponentPad*%
%ADD11R,1.408000X1.408000*%
%TD*%
%TA.AperFunction,ComponentPad*%
%ADD12C,1.408000*%
%TD*%
%TA.AperFunction,HeatsinkPad*%
%ADD13C,0.500000*%
%TD*%
%TA.AperFunction,HeatsinkPad*%
%ADD14R,1.900000X2.900000*%
%TD*%
%TA.AperFunction,ViaPad*%
%ADD15C,0.600000*%
%TD*%
%TA.AperFunction,Conductor*%
%ADD16C,0.200000*%
%TD*%
G04 APERTURE END LIST*
D10*
%TO.P,J1,S1,SHIELD*%
%TO.N,unconnected-(J1-SHIELD-PadS1)_3*%
X128420000Y-113160000D03*
%TO.N,unconnected-(J1-SHIELD-PadS1)_2*%
X124620000Y-113160000D03*
%TO.N,unconnected-(J1-SHIELD-PadS1)_1*%
X128420000Y-121800000D03*
%TO.N,unconnected-(J1-SHIELD-PadS1)*%
X124620000Y-121800000D03*
%TD*%
D11*
%TO.P,SW2,1,A*%
%TO.N,Net-(SW1-A)*%
X157000000Y-120500000D03*
D12*
%TO.P,SW2,2,B*%
%TO.N,Net-(SW1-B)*%
X159500000Y-120500000D03*
%TO.P,SW2,3,C*%
%TO.N,Net-(SW1-C)*%
X162000000Y-120500000D03*
%TD*%
D11*
%TO.P,SW1,1,A*%
%TO.N,Net-(SW3-A)*%
X124000000Y-108000000D03*
D12*
%TO.P,SW1,2,B*%
%TO.N,Net-(D1-A)*%
X124000000Y-105500000D03*
%TO.P,SW1,3,C*%
%TO.N,unconnected-(SW3-C-Pad3)*%
X124000000Y-103000000D03*
%TD*%
D13*
%TO.P,U1,9,EPAD*%
%TO.N,unconnected-(U1-EPAD-Pad9)_4*%
X135500000Y-102600000D03*
X135500000Y-103800000D03*
X135500000Y-105000000D03*
D14*
X136200000Y-103800000D03*
D13*
X136900000Y-102600000D03*
X136900000Y-103800000D03*
X136900000Y-105000000D03*
%TD*%
D15*
%TO.N,GND*%
X133725000Y-104435000D03*
X135000000Y-99500000D03*
X149100000Y-112500000D03*
X139775000Y-110600000D03*
X131000000Y-102500000D03*
X136000000Y-113500000D03*
X133725000Y-101895000D03*
X133000000Y-107500000D03*
X168000000Y-120000000D03*
X168000000Y-115000000D03*
X136000000Y-122500000D03*
%TO.N,Net-(U1-BAT)*%
X139775000Y-111550000D03*
X138675000Y-105705000D03*
X141550000Y-105500000D03*
%TO.N,/OC*%
X140000000Y-113500000D03*
X146000000Y-112500000D03*
%TO.N,/OD*%
X146000000Y-110600000D03*
X140000000Y-109500000D03*
%TO.N,Net-(U1-PROG)*%
X130912500Y-105500000D03*
X133725000Y-103165000D03*
%TD*%
D16*
%TO.N,Net-(U1-BAT)*%
X138675000Y-105705000D02*
X138675000Y-110450000D01*
X141550000Y-105500000D02*
X138880000Y-105500000D01*
X138675000Y-110450000D02*
X139775000Y-111550000D01*
X138880000Y-105500000D02*
X138675000Y-105705000D01*
%TO.N,/OC*%
X145000000Y-113500000D02*
X146000000Y-112500000D01*
X140000000Y-113500000D02*
X145000000Y-113500000D01*
%TO.N,/OD*%
X146000000Y-110500000D02*
X145000000Y-109500000D01*
X145000000Y-109500000D02*
X140000000Y-109500000D01*
X146000000Y-110600000D02*
X146000000Y-110500000D01*
%TO.N,Net-(U1-PROG)*%
X131390000Y-105500000D02*
X130912500Y-105500000D01*
X133725000Y-103165000D02*
X131390000Y-105500000D01*
%TD*%
%TA.AperFunction,Conductor*%
%TO.N,GND*%
G36*
X170006922Y-99001280D02*
G01*
X170097266Y-99011459D01*
X170124331Y-99017636D01*
X170203540Y-99045352D01*
X170228553Y-99057398D01*
X170299606Y-99102043D01*
X170321313Y-99119355D01*
X170380644Y-99178686D01*
X170397957Y-99200395D01*
X170442600Y-99271444D01*
X170454648Y-99296462D01*
X170482362Y-99375666D01*
X170488540Y-99402735D01*
X170498720Y-99493076D01*
X170499500Y-99506961D01*
X170499500Y-122493038D01*
X170498720Y-122506922D01*
X170498720Y-122506923D01*
X170488540Y-122597264D01*
X170482362Y-122624333D01*
X170454648Y-122703537D01*
X170442600Y-122728555D01*
X170397957Y-122799604D01*
X170380644Y-122821313D01*
X170321313Y-122880644D01*
X170299604Y-122897957D01*
X170228555Y-122942600D01*
X170203537Y-122954648D01*
X170124333Y-122982362D01*
X170097264Y-122988540D01*
X170017075Y-122997576D01*
X170006921Y-122998720D01*
X169993038Y-122999500D01*
X129192630Y-122999500D01*
X129125591Y-122979815D01*
X129079836Y-122927011D01*
X129069892Y-122857853D01*
X129098917Y-122794297D01*
X129145177Y-122760939D01*
X129149910Y-122758978D01*
X129217598Y-122730941D01*
X129389655Y-122615977D01*
X129535977Y-122469655D01*
X129650941Y-122297598D01*
X129730130Y-122106420D01*
X129770500Y-121903465D01*
X129770500Y-121696535D01*
X129730130Y-121493580D01*
X129650941Y-121302402D01*
X129535977Y-121130345D01*
X129535975Y-121130342D01*
X129389657Y-120984024D01*
X129245914Y-120887979D01*
X129217598Y-120869059D01*
X129186114Y-120856018D01*
X129026420Y-120789870D01*
X129026412Y-120789868D01*
X128823469Y-120749500D01*
X128823465Y-120749500D01*
X128016535Y-120749500D01*
X128016530Y-120749500D01*
X127813587Y-120789868D01*
X127813579Y-120789870D01*
X127622403Y-120869058D01*
X127450342Y-120984024D01*
X127304024Y-121130342D01*
X127189058Y-121302403D01*
X127109870Y-121493579D01*
X127109868Y-121493587D01*
X127069500Y-121696530D01*
X127069500Y-121903469D01*
X127109868Y-122106412D01*
X127109870Y-122106420D01*
X127189058Y-122297596D01*
X127304024Y-122469657D01*
X127450342Y-122615975D01*
X127450345Y-122615977D01*
X127622402Y-122730941D01*
X127685937Y-122757258D01*
X127694823Y-122760939D01*
X127749226Y-122804780D01*
X127771291Y-122871074D01*
X127754012Y-122938774D01*
X127702874Y-122986384D01*
X127647370Y-122999500D01*
X125392630Y-122999500D01*
X125325591Y-122979815D01*
X125279836Y-122927011D01*
X125269892Y-122857853D01*
X125298917Y-122794297D01*
X125345177Y-122760939D01*
X125349910Y-122758978D01*
X125417598Y-122730941D01*
X125589655Y-122615977D01*
X125735977Y-122469655D01*
X125850941Y-122297598D01*
X125930130Y-122106420D01*
X125970500Y-121903465D01*
X125970500Y-121696535D01*
X125930130Y-121493580D01*
X125850941Y-121302402D01*
X125735977Y-121130345D01*
X125735975Y-121130342D01*
X125589657Y-120984024D01*
X125445914Y-120887979D01*
X125417598Y-120869059D01*
X125386114Y-120856018D01*
X125226420Y-120789870D01*
X125226412Y-120789868D01*
X125023469Y-120749500D01*
X125023465Y-120749500D01*
X124216535Y-120749500D01*
X124216530Y-120749500D01*
X124013587Y-120789868D01*
X124013579Y-120789870D01*
X123822403Y-120869058D01*
X123650342Y-120984024D01*
X123504024Y-121130342D01*
X123389058Y-121302403D01*
X123309870Y-121493579D01*
X123309868Y-121493587D01*
X123269500Y-121696530D01*
X123269500Y-121903469D01*
X123309868Y-122106412D01*
X123309870Y-122106420D01*
X123389058Y-122297596D01*
X123504024Y-122469657D01*
X123650342Y-122615975D01*
X123650345Y-122615977D01*
X123822402Y-122730941D01*
X123885937Y-122757258D01*
X123894823Y-122760939D01*
X123949226Y-122804780D01*
X123971291Y-122871074D01*
X123954012Y-122938774D01*
X123902874Y-122986384D01*
X123847370Y-122999500D01*
X121506962Y-122999500D01*
X121493078Y-122998720D01*
X121480553Y-122997308D01*
X121402735Y-122988540D01*
X121375666Y-122982362D01*
X121296462Y-122954648D01*
X121271444Y-122942600D01*
X121200395Y-122897957D01*
X121178686Y-122880644D01*
X121119355Y-122821313D01*
X121102042Y-122799604D01*
X121098707Y-122794297D01*
X121057398Y-122728553D01*
X121045351Y-122703537D01*
X121017637Y-122624333D01*
X121011459Y-122597263D01*
X121001280Y-122506922D01*
X121000500Y-122493038D01*
X121000500Y-119748135D01*
X155795500Y-119748135D01*
X155795500Y-121251870D01*
X155795501Y-121251876D01*
X155801908Y-121311483D01*
X155852202Y-121446328D01*
X155852206Y-121446335D01*
X155938452Y-121561544D01*
X155938455Y-121561547D01*
X156053664Y-121647793D01*
X156053671Y-121647797D01*
X156188517Y-121698091D01*
X156188516Y-121698091D01*
X156195444Y-121698835D01*
X156248127Y-121704500D01*
X157751872Y-121704499D01*
X157811483Y-121698091D01*
X157946331Y-121647796D01*
X158061546Y-121561546D01*
X158147796Y-121446331D01*
X158198091Y-121311483D01*
X158204500Y-121251873D01*
X158204499Y-121127072D01*
X158224183Y-121060036D01*
X158276987Y-121014281D01*
X158346145Y-121004337D01*
X158409701Y-121033361D01*
X158438983Y-121070779D01*
X158469334Y-121130345D01*
X158469819Y-121131296D01*
X158581259Y-121284679D01*
X158715321Y-121418741D01*
X158868704Y-121530181D01*
X158948515Y-121570846D01*
X159037627Y-121616252D01*
X159037629Y-121616252D01*
X159037632Y-121616254D01*
X159217945Y-121674842D01*
X159311574Y-121689671D01*
X159405200Y-121704500D01*
X159405204Y-121704500D01*
X159594800Y-121704500D01*
X159678022Y-121691318D01*
X159782055Y-121674842D01*
X159962368Y-121616254D01*
X160131296Y-121530181D01*
X160284679Y-121418741D01*
X160418741Y-121284679D01*
X160530181Y-121131296D01*
X160616254Y-120962368D01*
X160632069Y-120913693D01*
X160671507Y-120856018D01*
X160735865Y-120828820D01*
X160804712Y-120840735D01*
X160856187Y-120887979D01*
X160867929Y-120913691D01*
X160883746Y-120962368D01*
X160969819Y-121131296D01*
X161081259Y-121284679D01*
X161215321Y-121418741D01*
X161368704Y-121530181D01*
X161448515Y-121570846D01*
X161537627Y-121616252D01*
X161537629Y-121616252D01*
X161537632Y-121616254D01*
X161717945Y-121674842D01*
X161811574Y-121689671D01*
X161905200Y-121704500D01*
X161905204Y-121704500D01*
X162094800Y-121704500D01*
X162178022Y-121691318D01*
X162282055Y-121674842D01*
X162462368Y-121616254D01*
X162631296Y-121530181D01*
X162784679Y-121418741D01*
X162918741Y-121284679D01*
X163030181Y-121131296D01*
X163116254Y-120962368D01*
X163174842Y-120782055D01*
X163191318Y-120678022D01*
X163204500Y-120594800D01*
X163204500Y-120405199D01*
X163188023Y-120301171D01*
X163174842Y-120217945D01*
X163116254Y-120037632D01*
X163116252Y-120037629D01*
X163116252Y-120037627D01*
X163030180Y-119868703D01*
X162918741Y-119715321D01*
X162784679Y-119581259D01*
X162631296Y-119469819D01*
X162569735Y-119438452D01*
X162462372Y-119383747D01*
X162365299Y-119352206D01*
X162282055Y-119325158D01*
X162282051Y-119325157D01*
X162282050Y-119325157D01*
X162094800Y-119295500D01*
X162094796Y-119295500D01*
X161905204Y-119295500D01*
X161905200Y-119295500D01*
X161717949Y-119325157D01*
X161717946Y-119325157D01*
X161717945Y-119325158D01*
X161659482Y-119344153D01*
X161537627Y-119383747D01*
X161368703Y-119469819D01*
X161215319Y-119581260D01*
X161081260Y-119715319D01*
X160969819Y-119868703D01*
X160883747Y-120037627D01*
X160867931Y-120086306D01*
X160828493Y-120143981D01*
X160764134Y-120171179D01*
X160695288Y-120159264D01*
X160643812Y-120112019D01*
X160632069Y-120086306D01*
X160616252Y-120037627D01*
X160530180Y-119868703D01*
X160418741Y-119715321D01*
X160284679Y-119581259D01*
X160131296Y-119469819D01*
X160069735Y-119438452D01*
X159962372Y-119383747D01*
X159865299Y-119352206D01*
X159782055Y-119325158D01*
X159782051Y-119325157D01*
X159782050Y-119325157D01*
X159594800Y-119295500D01*
X159594796Y-119295500D01*
X159405204Y-119295500D01*
X159405200Y-119295500D01*
X159217949Y-119325157D01*
X159217946Y-119325157D01*
X159217945Y-119325158D01*
X159159482Y-119344153D01*
X159037627Y-119383747D01*
X158868703Y-119469819D01*
X158715319Y-119581260D01*
X158581260Y-119715319D01*
X158469819Y-119868703D01*
X158438984Y-119929221D01*
X158391009Y-119980017D01*
X158323188Y-119996812D01*
X158257053Y-119974274D01*
X158213602Y-119919559D01*
X158204499Y-119872926D01*
X158204499Y-119748129D01*
X158204498Y-119748123D01*
X158204497Y-119748116D01*
X158198091Y-119688517D01*
X158158086Y-119581259D01*
X158147797Y-119553671D01*
X158147793Y-119553664D01*
X158061547Y-119438455D01*
X158061544Y-119438452D01*
X157946335Y-119352206D01*
X157946328Y-119352202D01*
X157811482Y-119301908D01*
X157811483Y-119301908D01*
X157751883Y-119295501D01*
X157751881Y-119295500D01*
X157751873Y-119295500D01*
X157751864Y-119295500D01*
X156248129Y-119295500D01*
X156248123Y-119295501D01*
X156188516Y-119301908D01*
X156053671Y-119352202D01*
X156053664Y-119352206D01*
X155938455Y-119438452D01*
X155938452Y-119438455D01*
X155852206Y-119553664D01*
X155852202Y-119553671D01*
X155801908Y-119688517D01*
X155799027Y-119715319D01*
X155795501Y-119748123D01*
X155795500Y-119748135D01*
X121000500Y-119748135D01*
X121000500Y-113056530D01*
X123269500Y-113056530D01*
X123269500Y-113263469D01*
X123309868Y-113466412D01*
X123309870Y-113466420D01*
X123389058Y-113657596D01*
X123504024Y-113829657D01*
X123650342Y-113975975D01*
X123650345Y-113975977D01*
X123822402Y-114090941D01*
X124013580Y-114170130D01*
X124210955Y-114209390D01*
X124216530Y-114210499D01*
X124216534Y-114210500D01*
X124216535Y-114210500D01*
X125023466Y-114210500D01*
X125023467Y-114210499D01*
X125226420Y-114170130D01*
X125417598Y-114090941D01*
X125589655Y-113975977D01*
X125735977Y-113829655D01*
X125850941Y-113657598D01*
X125930130Y-113466420D01*
X125970500Y-113263465D01*
X125970500Y-113056535D01*
X125970499Y-113056530D01*
X127069500Y-113056530D01*
X127069500Y-113263469D01*
X127109868Y-113466412D01*
X127109870Y-113466420D01*
X127189058Y-113657596D01*
X127304024Y-113829657D01*
X127450342Y-113975975D01*
X127450345Y-113975977D01*
X127622402Y-114090941D01*
X127813580Y-114170130D01*
X128010955Y-114209390D01*
X128016530Y-114210499D01*
X128016534Y-114210500D01*
X128016535Y-114210500D01*
X128823466Y-114210500D01*
X128823467Y-114210499D01*
X129026420Y-114170130D01*
X129217598Y-114090941D01*
X129389655Y-113975977D01*
X129535977Y-113829655D01*
X129650941Y-113657598D01*
X129730130Y-113466420D01*
X129739134Y-113421153D01*
X139199500Y-113421153D01*
X139199500Y-113578846D01*
X139230261Y-113733489D01*
X139230264Y-113733501D01*
X139290602Y-113879172D01*
X139290609Y-113879185D01*
X139378210Y-114010288D01*
X139378213Y-114010292D01*
X139489707Y-114121786D01*
X139489711Y-114121789D01*
X139620814Y-114209390D01*
X139620827Y-114209397D01*
X139766498Y-114269735D01*
X139766503Y-114269737D01*
X139921153Y-114300499D01*
X139921156Y-114300500D01*
X139921158Y-114300500D01*
X140078844Y-114300500D01*
X140078845Y-114300499D01*
X140233497Y-114269737D01*
X140379179Y-114209394D01*
X140379185Y-114209390D01*
X140510875Y-114121398D01*
X140577553Y-114100520D01*
X140579766Y-114100500D01*
X144913331Y-114100500D01*
X144913347Y-114100501D01*
X144920943Y-114100501D01*
X145079054Y-114100501D01*
X145079057Y-114100501D01*
X145231785Y-114059577D01*
X145281904Y-114030639D01*
X145368716Y-113980520D01*
X145480520Y-113868716D01*
X145480520Y-113868714D01*
X145490728Y-113858507D01*
X145490729Y-113858504D01*
X146014665Y-113334570D01*
X146075984Y-113301088D01*
X146078151Y-113300637D01*
X146078840Y-113300500D01*
X146078842Y-113300500D01*
X146233497Y-113269737D01*
X146379179Y-113209394D01*
X146510289Y-113121789D01*
X146621789Y-113010289D01*
X146709394Y-112879179D01*
X146769737Y-112733497D01*
X146800500Y-112578842D01*
X146800500Y-112421158D01*
X146800500Y-112421155D01*
X146800499Y-112421153D01*
X146780326Y-112319737D01*
X146769737Y-112266503D01*
X146754227Y-112229058D01*
X146709397Y-112120827D01*
X146709390Y-112120814D01*
X146621789Y-111989711D01*
X146621786Y-111989707D01*
X146510292Y-111878213D01*
X146510288Y-111878210D01*
X146379185Y-111790609D01*
X146379172Y-111790602D01*
X146233501Y-111730264D01*
X146233489Y-111730261D01*
X146078845Y-111699500D01*
X146078842Y-111699500D01*
X145921158Y-111699500D01*
X145921155Y-111699500D01*
X145766510Y-111730261D01*
X145766498Y-111730264D01*
X145620827Y-111790602D01*
X145620814Y-111790609D01*
X145489711Y-111878210D01*
X145489707Y-111878213D01*
X145378213Y-111989707D01*
X145378210Y-111989711D01*
X145290609Y-112120814D01*
X145290602Y-112120827D01*
X145230264Y-112266498D01*
X145230261Y-112266508D01*
X145199362Y-112421849D01*
X145166977Y-112483759D01*
X145165426Y-112485338D01*
X144787584Y-112863181D01*
X144726261Y-112896666D01*
X144699903Y-112899500D01*
X140579766Y-112899500D01*
X140512727Y-112879815D01*
X140510875Y-112878602D01*
X140379185Y-112790609D01*
X140379172Y-112790602D01*
X140233501Y-112730264D01*
X140233489Y-112730261D01*
X140078845Y-112699500D01*
X140078842Y-112699500D01*
X139921158Y-112699500D01*
X139921155Y-112699500D01*
X139766510Y-112730261D01*
X139766498Y-112730264D01*
X139620827Y-112790602D01*
X139620814Y-112790609D01*
X139489711Y-112878210D01*
X139489707Y-112878213D01*
X139378213Y-112989707D01*
X139378210Y-112989711D01*
X139290609Y-113120814D01*
X139290602Y-113120827D01*
X139230264Y-113266498D01*
X139230261Y-113266510D01*
X139199500Y-113421153D01*
X129739134Y-113421153D01*
X129770500Y-113263465D01*
X129770500Y-113056535D01*
X129730130Y-112853580D01*
X129650941Y-112662402D01*
X129535977Y-112490345D01*
X129535975Y-112490342D01*
X129389657Y-112344024D01*
X129262992Y-112259390D01*
X129217598Y-112229059D01*
X129026420Y-112149870D01*
X129026412Y-112149868D01*
X128823469Y-112109500D01*
X128823465Y-112109500D01*
X128016535Y-112109500D01*
X128016530Y-112109500D01*
X127813587Y-112149868D01*
X127813579Y-112149870D01*
X127622403Y-112229058D01*
X127450342Y-112344024D01*
X127304024Y-112490342D01*
X127189058Y-112662403D01*
X127109870Y-112853579D01*
X127109868Y-112853587D01*
X127069500Y-113056530D01*
X125970499Y-113056530D01*
X125930130Y-112853580D01*
X125850941Y-112662402D01*
X125735977Y-112490345D01*
X125735975Y-112490342D01*
X125589657Y-112344024D01*
X125462992Y-112259390D01*
X125417598Y-112229059D01*
X125226420Y-112149870D01*
X125226412Y-112149868D01*
X125023469Y-112109500D01*
X125023465Y-112109500D01*
X124216535Y-112109500D01*
X124216530Y-112109500D01*
X124013587Y-112149868D01*
X124013579Y-112149870D01*
X123822403Y-112229058D01*
X123650342Y-112344024D01*
X123504024Y-112490342D01*
X123389058Y-112662403D01*
X123309870Y-112853579D01*
X123309868Y-112853587D01*
X123269500Y-113056530D01*
X121000500Y-113056530D01*
X121000500Y-102905199D01*
X122795500Y-102905199D01*
X122795500Y-103094800D01*
X122819106Y-103243842D01*
X122825158Y-103282055D01*
X122848054Y-103352520D01*
X122883747Y-103462372D01*
X122969819Y-103631296D01*
X123081259Y-103784679D01*
X123215321Y-103918741D01*
X123368704Y-104030181D01*
X123448515Y-104070846D01*
X123537627Y-104116252D01*
X123537629Y-104116252D01*
X123537632Y-104116254D01*
X123586306Y-104132069D01*
X123643981Y-104171507D01*
X123671179Y-104235866D01*
X123659264Y-104304712D01*
X123612019Y-104356188D01*
X123586308Y-104367929D01*
X123568983Y-104373559D01*
X123537627Y-104383747D01*
X123368703Y-104469819D01*
X123215319Y-104581260D01*
X123081260Y-104715319D01*
X122969819Y-104868703D01*
X122883747Y-105037627D01*
X122825157Y-105217949D01*
X122795500Y-105405199D01*
X122795500Y-105594800D01*
X122817466Y-105733489D01*
X122825158Y-105782055D01*
X122853315Y-105868713D01*
X122883747Y-105962372D01*
X122954128Y-106100501D01*
X122969819Y-106131296D01*
X123081259Y-106284679D01*
X123215321Y-106418741D01*
X123317576Y-106493034D01*
X123368705Y-106530182D01*
X123402004Y-106547148D01*
X123429220Y-106561015D01*
X123480016Y-106608988D01*
X123496812Y-106676809D01*
X123474275Y-106742944D01*
X123419561Y-106786396D01*
X123372927Y-106795500D01*
X123248130Y-106795500D01*
X123248123Y-106795501D01*
X123188516Y-106801908D01*
X123053671Y-106852202D01*
X123053664Y-106852206D01*
X122938455Y-106938452D01*
X122938452Y-106938455D01*
X122852206Y-107053664D01*
X122852202Y-107053671D01*
X122801908Y-107188517D01*
X122795501Y-107248116D01*
X122795501Y-107248123D01*
X122795500Y-107248135D01*
X122795500Y-108751870D01*
X122795501Y-108751876D01*
X122801908Y-108811483D01*
X122852202Y-108946328D01*
X122852206Y-108946335D01*
X122938452Y-109061544D01*
X122938455Y-109061547D01*
X123053664Y-109147793D01*
X123053671Y-109147797D01*
X123188517Y-109198091D01*
X123188516Y-109198091D01*
X123195444Y-109198835D01*
X123248127Y-109204500D01*
X124751872Y-109204499D01*
X124811483Y-109198091D01*
X124946331Y-109147796D01*
X125061546Y-109061546D01*
X125147796Y-108946331D01*
X125198091Y-108811483D01*
X125204500Y-108751873D01*
X125204499Y-107248128D01*
X125198091Y-107188517D01*
X125147796Y-107053669D01*
X125147795Y-107053668D01*
X125147793Y-107053664D01*
X125061547Y-106938455D01*
X125061544Y-106938452D01*
X124946335Y-106852206D01*
X124946328Y-106852202D01*
X124811482Y-106801908D01*
X124811483Y-106801908D01*
X124751883Y-106795501D01*
X124751881Y-106795500D01*
X124751873Y-106795500D01*
X124751865Y-106795500D01*
X124627075Y-106795500D01*
X124560036Y-106775815D01*
X124514281Y-106723011D01*
X124504337Y-106653853D01*
X124533362Y-106590297D01*
X124570781Y-106561015D01*
X124631294Y-106530182D01*
X124631293Y-106530182D01*
X124631296Y-106530181D01*
X124784679Y-106418741D01*
X124918741Y-106284679D01*
X125030181Y-106131296D01*
X125116254Y-105962368D01*
X125174842Y-105782055D01*
X125202481Y-105607546D01*
X125204500Y-105594800D01*
X125204500Y-105421153D01*
X130112000Y-105421153D01*
X130112000Y-105578846D01*
X130142761Y-105733489D01*
X130142764Y-105733501D01*
X130203102Y-105879172D01*
X130203109Y-105879185D01*
X130290710Y-106010288D01*
X130290713Y-106010292D01*
X130402207Y-106121786D01*
X130402211Y-106121789D01*
X130533314Y-106209390D01*
X130533327Y-106209397D01*
X130671480Y-106266621D01*
X130679003Y-106269737D01*
X130833653Y-106300499D01*
X130833656Y-106300500D01*
X130833658Y-106300500D01*
X130991344Y-106300500D01*
X130991345Y-106300499D01*
X131145997Y-106269737D01*
X131291679Y-106209394D01*
X131422789Y-106121789D01*
X131422788Y-106121789D01*
X131427854Y-106118405D01*
X131428984Y-106120097D01*
X131464743Y-106101656D01*
X131469053Y-106100501D01*
X131469057Y-106100501D01*
X131621785Y-106059577D01*
X131702238Y-106013127D01*
X131758716Y-105980520D01*
X131870520Y-105868716D01*
X131870520Y-105868714D01*
X131880724Y-105858511D01*
X131880727Y-105858506D01*
X133739664Y-103999571D01*
X133800985Y-103966088D01*
X133803152Y-103965637D01*
X133803841Y-103965500D01*
X133803842Y-103965500D01*
X133958497Y-103934737D01*
X134104179Y-103874394D01*
X134235289Y-103786789D01*
X134346789Y-103675289D01*
X134434394Y-103544179D01*
X134494737Y-103398497D01*
X134501269Y-103365659D01*
X134503883Y-103352520D01*
X134536268Y-103290609D01*
X134596984Y-103256035D01*
X134666753Y-103259774D01*
X134723425Y-103300641D01*
X134749006Y-103365659D01*
X134749500Y-103376711D01*
X134749500Y-105297869D01*
X134749501Y-105297876D01*
X134755908Y-105357483D01*
X134806202Y-105492328D01*
X134806206Y-105492335D01*
X134892452Y-105607544D01*
X134892455Y-105607547D01*
X135007664Y-105693793D01*
X135007671Y-105693797D01*
X135052618Y-105710561D01*
X135142517Y-105744091D01*
X135202127Y-105750500D01*
X135426081Y-105750499D01*
X135426082Y-105750500D01*
X135573918Y-105750500D01*
X135573918Y-105750499D01*
X136819948Y-105750499D01*
X136819968Y-105750500D01*
X136826082Y-105750500D01*
X136981514Y-105750500D01*
X136981530Y-105750499D01*
X137197871Y-105750499D01*
X137197872Y-105750499D01*
X137257483Y-105744091D01*
X137392331Y-105693796D01*
X137482690Y-105626153D01*
X137874500Y-105626153D01*
X137874500Y-105783846D01*
X137905261Y-105938489D01*
X137905264Y-105938501D01*
X137965602Y-106084172D01*
X137965609Y-106084185D01*
X138053602Y-106215874D01*
X138074480Y-106282551D01*
X138074500Y-106284765D01*
X138074500Y-110363330D01*
X138074499Y-110363348D01*
X138074499Y-110529054D01*
X138074498Y-110529054D01*
X138114634Y-110678844D01*
X138115423Y-110681785D01*
X138144291Y-110731785D01*
X138172280Y-110780264D01*
X138194479Y-110818714D01*
X138194481Y-110818717D01*
X138313349Y-110937585D01*
X138313355Y-110937590D01*
X138940425Y-111564660D01*
X138973910Y-111625983D01*
X138974361Y-111628149D01*
X139005261Y-111783491D01*
X139005264Y-111783501D01*
X139065602Y-111929172D01*
X139065609Y-111929185D01*
X139153210Y-112060288D01*
X139153213Y-112060292D01*
X139264707Y-112171786D01*
X139264711Y-112171789D01*
X139395814Y-112259390D01*
X139395827Y-112259397D01*
X139541498Y-112319735D01*
X139541503Y-112319737D01*
X139696153Y-112350499D01*
X139696156Y-112350500D01*
X139696158Y-112350500D01*
X139853844Y-112350500D01*
X139853845Y-112350499D01*
X140008497Y-112319737D01*
X140154179Y-112259394D01*
X140285289Y-112171789D01*
X140396789Y-112060289D01*
X140484394Y-111929179D01*
X140544737Y-111783497D01*
X140575500Y-111628842D01*
X140575500Y-111471158D01*
X140575500Y-111471155D01*
X140575499Y-111471153D01*
X140555326Y-111369737D01*
X140544737Y-111316503D01*
X140541791Y-111309390D01*
X140484397Y-111170827D01*
X140484390Y-111170814D01*
X140396789Y-111039711D01*
X140396786Y-111039707D01*
X140285292Y-110928213D01*
X140285288Y-110928210D01*
X140154185Y-110840609D01*
X140154172Y-110840602D01*
X140008501Y-110780264D01*
X140008491Y-110780261D01*
X139853149Y-110749361D01*
X139791238Y-110716976D01*
X139789660Y-110715425D01*
X139486001Y-110411766D01*
X139452516Y-110350443D01*
X139457500Y-110280751D01*
X139499372Y-110224818D01*
X139564836Y-110200401D01*
X139621134Y-110209524D01*
X139766498Y-110269735D01*
X139766503Y-110269737D01*
X139921153Y-110300499D01*
X139921156Y-110300500D01*
X139921158Y-110300500D01*
X140078844Y-110300500D01*
X140078845Y-110300499D01*
X140233497Y-110269737D01*
X140351592Y-110220821D01*
X140379172Y-110209397D01*
X140379172Y-110209396D01*
X140379179Y-110209394D01*
X140392638Y-110200401D01*
X140510875Y-110121398D01*
X140577553Y-110100520D01*
X140579766Y-110100500D01*
X144699903Y-110100500D01*
X144766942Y-110120185D01*
X144787584Y-110136819D01*
X145163181Y-110512416D01*
X145196666Y-110573739D01*
X145199500Y-110600097D01*
X145199500Y-110678846D01*
X145230261Y-110833489D01*
X145230264Y-110833501D01*
X145290602Y-110979172D01*
X145290609Y-110979185D01*
X145378210Y-111110288D01*
X145378213Y-111110292D01*
X145489707Y-111221786D01*
X145489711Y-111221789D01*
X145620814Y-111309390D01*
X145620827Y-111309397D01*
X145766498Y-111369735D01*
X145766503Y-111369737D01*
X145921153Y-111400499D01*
X145921156Y-111400500D01*
X145921158Y-111400500D01*
X146078844Y-111400500D01*
X146078845Y-111400499D01*
X146233497Y-111369737D01*
X146379179Y-111309394D01*
X146510289Y-111221789D01*
X146621789Y-111110289D01*
X146709394Y-110979179D01*
X146769737Y-110833497D01*
X146800500Y-110678842D01*
X146800500Y-110521158D01*
X146800500Y-110521155D01*
X146800499Y-110521153D01*
X146769738Y-110366510D01*
X146769737Y-110366503D01*
X146742398Y-110300500D01*
X146709397Y-110220827D01*
X146709390Y-110220814D01*
X146621789Y-110089711D01*
X146621786Y-110089707D01*
X146510292Y-109978213D01*
X146510288Y-109978210D01*
X146379185Y-109890609D01*
X146379172Y-109890602D01*
X146233499Y-109830263D01*
X146233493Y-109830261D01*
X146202980Y-109824192D01*
X146141070Y-109791806D01*
X146139492Y-109790256D01*
X145487590Y-109138355D01*
X145487588Y-109138352D01*
X145368717Y-109019481D01*
X145368716Y-109019480D01*
X145281904Y-108969360D01*
X145281904Y-108969359D01*
X145281900Y-108969358D01*
X145231785Y-108940423D01*
X145079057Y-108899499D01*
X144920943Y-108899499D01*
X144913347Y-108899499D01*
X144913331Y-108899500D01*
X140579766Y-108899500D01*
X140512727Y-108879815D01*
X140510875Y-108878602D01*
X140379185Y-108790609D01*
X140379172Y-108790602D01*
X140233501Y-108730264D01*
X140233489Y-108730261D01*
X140078845Y-108699500D01*
X140078842Y-108699500D01*
X139921158Y-108699500D01*
X139921155Y-108699500D01*
X139766510Y-108730261D01*
X139766498Y-108730264D01*
X139620827Y-108790602D01*
X139620814Y-108790609D01*
X139489711Y-108878210D01*
X139489707Y-108878213D01*
X139487181Y-108880740D01*
X139485531Y-108881640D01*
X139485001Y-108882076D01*
X139484918Y-108881975D01*
X139425858Y-108914225D01*
X139356166Y-108909241D01*
X139300233Y-108867369D01*
X139275816Y-108801905D01*
X139275500Y-108793059D01*
X139275500Y-106284765D01*
X139280827Y-106266621D01*
X139281165Y-106247712D01*
X139294665Y-106219494D01*
X139295185Y-106217726D01*
X139296398Y-106215874D01*
X139300728Y-106209394D01*
X139336666Y-106155608D01*
X139390278Y-106110804D01*
X139439768Y-106100500D01*
X140970234Y-106100500D01*
X141037273Y-106120185D01*
X141039125Y-106121398D01*
X141170814Y-106209390D01*
X141170827Y-106209397D01*
X141308980Y-106266621D01*
X141316503Y-106269737D01*
X141471153Y-106300499D01*
X141471156Y-106300500D01*
X141471158Y-106300500D01*
X141628844Y-106300500D01*
X141628845Y-106300499D01*
X141783497Y-106269737D01*
X141929179Y-106209394D01*
X142060289Y-106121789D01*
X142171789Y-106010289D01*
X142259394Y-105879179D01*
X142319737Y-105733497D01*
X142350500Y-105578842D01*
X142350500Y-105421158D01*
X142350500Y-105421155D01*
X142350499Y-105421153D01*
X142319737Y-105266503D01*
X142319735Y-105266498D01*
X142259397Y-105120827D01*
X142259390Y-105120814D01*
X142171789Y-104989711D01*
X142171786Y-104989707D01*
X142060292Y-104878213D01*
X142060288Y-104878210D01*
X141929185Y-104790609D01*
X141929172Y-104790602D01*
X141783501Y-104730264D01*
X141783489Y-104730261D01*
X141628845Y-104699500D01*
X141628842Y-104699500D01*
X141471158Y-104699500D01*
X141471155Y-104699500D01*
X141316510Y-104730261D01*
X141316498Y-104730264D01*
X141170827Y-104790602D01*
X141170814Y-104790609D01*
X141039125Y-104878602D01*
X140972447Y-104899480D01*
X140970234Y-104899500D01*
X138959062Y-104899500D01*
X138959058Y-104899499D01*
X138800943Y-104899499D01*
X138782296Y-104904495D01*
X138767662Y-104904888D01*
X138762413Y-104903498D01*
X138759933Y-104903702D01*
X138759933Y-104904500D01*
X138596155Y-104904500D01*
X138441510Y-104935261D01*
X138441498Y-104935264D01*
X138295827Y-104995602D01*
X138295814Y-104995609D01*
X138164711Y-105083210D01*
X138164707Y-105083213D01*
X138053213Y-105194707D01*
X138053210Y-105194711D01*
X137965609Y-105325814D01*
X137965602Y-105325827D01*
X137905264Y-105471498D01*
X137905261Y-105471510D01*
X137874500Y-105626153D01*
X137482690Y-105626153D01*
X137507546Y-105607546D01*
X137593796Y-105492331D01*
X137644091Y-105357483D01*
X137650500Y-105297873D01*
X137650500Y-103815500D01*
X137650500Y-103726082D01*
X137650500Y-103716093D01*
X137650499Y-103716079D01*
X137650499Y-102673922D01*
X137650500Y-102673918D01*
X137650500Y-102526082D01*
X137650499Y-102526077D01*
X137650499Y-102302128D01*
X137644091Y-102242517D01*
X137593796Y-102107669D01*
X137593795Y-102107668D01*
X137593793Y-102107664D01*
X137507547Y-101992455D01*
X137507544Y-101992452D01*
X137392335Y-101906206D01*
X137392328Y-101906202D01*
X137257482Y-101855908D01*
X137257483Y-101855908D01*
X137197883Y-101849501D01*
X137197881Y-101849500D01*
X137197873Y-101849500D01*
X136973918Y-101849500D01*
X136826082Y-101849500D01*
X136826081Y-101849500D01*
X135573922Y-101849500D01*
X135573918Y-101849500D01*
X135426082Y-101849500D01*
X135426077Y-101849500D01*
X135202130Y-101849500D01*
X135202123Y-101849501D01*
X135142516Y-101855908D01*
X135007671Y-101906202D01*
X135007664Y-101906206D01*
X134892455Y-101992452D01*
X134892452Y-101992455D01*
X134806206Y-102107664D01*
X134806202Y-102107671D01*
X134755908Y-102242517D01*
X134749501Y-102302116D01*
X134749501Y-102302123D01*
X134749500Y-102302135D01*
X134749500Y-102953288D01*
X134729815Y-103020327D01*
X134677011Y-103066082D01*
X134607853Y-103076026D01*
X134544297Y-103047001D01*
X134506523Y-102988223D01*
X134503883Y-102977480D01*
X134494738Y-102931508D01*
X134494737Y-102931507D01*
X134494737Y-102931503D01*
X134483842Y-102905199D01*
X134434397Y-102785827D01*
X134434390Y-102785814D01*
X134346789Y-102654711D01*
X134346786Y-102654707D01*
X134235292Y-102543213D01*
X134235288Y-102543210D01*
X134104185Y-102455609D01*
X134104172Y-102455602D01*
X133958501Y-102395264D01*
X133958489Y-102395261D01*
X133803845Y-102364500D01*
X133803842Y-102364500D01*
X133646158Y-102364500D01*
X133646155Y-102364500D01*
X133491510Y-102395261D01*
X133491498Y-102395264D01*
X133345827Y-102455602D01*
X133345814Y-102455609D01*
X133214711Y-102543210D01*
X133214707Y-102543213D01*
X133103213Y-102654707D01*
X133103210Y-102654711D01*
X133015609Y-102785814D01*
X133015602Y-102785827D01*
X132955264Y-102931498D01*
X132955261Y-102931508D01*
X132924362Y-103086848D01*
X132891977Y-103148759D01*
X132890426Y-103150337D01*
X131320905Y-104719858D01*
X131259582Y-104753343D01*
X131189890Y-104748359D01*
X131185772Y-104746738D01*
X131146001Y-104730264D01*
X131145989Y-104730261D01*
X130991345Y-104699500D01*
X130991342Y-104699500D01*
X130833658Y-104699500D01*
X130833655Y-104699500D01*
X130679010Y-104730261D01*
X130678998Y-104730264D01*
X130533327Y-104790602D01*
X130533314Y-104790609D01*
X130402211Y-104878210D01*
X130402207Y-104878213D01*
X130290713Y-104989707D01*
X130290710Y-104989711D01*
X130203109Y-105120814D01*
X130203102Y-105120827D01*
X130142764Y-105266498D01*
X130142761Y-105266510D01*
X130112000Y-105421153D01*
X125204500Y-105421153D01*
X125204500Y-105405199D01*
X125187500Y-105297864D01*
X125174842Y-105217945D01*
X125116254Y-105037632D01*
X125116252Y-105037629D01*
X125116252Y-105037627D01*
X125064093Y-104935261D01*
X125030181Y-104868704D01*
X124918741Y-104715321D01*
X124784679Y-104581259D01*
X124631296Y-104469819D01*
X124462368Y-104383746D01*
X124413693Y-104367930D01*
X124356018Y-104328493D01*
X124328820Y-104264135D01*
X124340735Y-104195288D01*
X124387979Y-104143813D01*
X124413691Y-104132070D01*
X124462368Y-104116254D01*
X124631296Y-104030181D01*
X124784679Y-103918741D01*
X124918741Y-103784679D01*
X125030181Y-103631296D01*
X125116254Y-103462368D01*
X125174842Y-103282055D01*
X125191318Y-103178022D01*
X125204500Y-103094800D01*
X125204500Y-102905199D01*
X125185591Y-102785814D01*
X125174842Y-102717945D01*
X125116254Y-102537632D01*
X125116252Y-102537629D01*
X125116252Y-102537627D01*
X125030180Y-102368703D01*
X124918741Y-102215321D01*
X124784679Y-102081259D01*
X124631296Y-101969819D01*
X124462372Y-101883747D01*
X124403905Y-101864750D01*
X124282055Y-101825158D01*
X124282051Y-101825157D01*
X124282050Y-101825157D01*
X124094800Y-101795500D01*
X124094796Y-101795500D01*
X123905204Y-101795500D01*
X123905200Y-101795500D01*
X123717949Y-101825157D01*
X123717946Y-101825157D01*
X123717945Y-101825158D01*
X123659482Y-101844153D01*
X123537627Y-101883747D01*
X123368703Y-101969819D01*
X123215319Y-102081260D01*
X123081260Y-102215319D01*
X122969819Y-102368703D01*
X122883747Y-102537627D01*
X122825157Y-102717949D01*
X122795500Y-102905199D01*
X121000500Y-102905199D01*
X121000500Y-99506961D01*
X121001280Y-99493077D01*
X121001280Y-99493076D01*
X121011460Y-99402729D01*
X121017635Y-99375670D01*
X121045353Y-99296456D01*
X121057396Y-99271450D01*
X121102046Y-99200389D01*
X121119351Y-99178690D01*
X121178690Y-99119351D01*
X121200389Y-99102046D01*
X121271450Y-99057396D01*
X121296456Y-99045353D01*
X121375670Y-99017635D01*
X121402733Y-99011459D01*
X121465419Y-99004396D01*
X121493079Y-99001280D01*
X121506962Y-99000500D01*
X121565892Y-99000500D01*
X169934108Y-99000500D01*
X169993038Y-99000500D01*
X170006922Y-99001280D01*
G37*
%TD.AperFunction*%
%TD*%
M02*
