M48
; DRILL file {KiCad 9.0.1} date 2025-07-07T08:11:29+0530
; FORMAT={-:-/ absolute / inch / decimal}
; #@! TF.CreationDate,2025-07-07T08:11:29+05:30
; #@! TF.GenerationSoftware,Kicad,Pcbnew,9.0.1
; #@! TF.FileFunction,Plated,1,2,PTH
FMAT,2
INCH
; #@! TA.AperFunction,Plated,PTH,ViaDrill
T1C0.0118
; #@! TA.AperFunction,Plated,PTH,ComponentDrill
T2C0.0118
; #@! TA.AperFunction,Plated,PTH,ComponentDrill
T3C0.0236
; #@! TA.AperFunction,Plated,PTH,ComponentDrill
T4C0.0354
%
G90
G05
T1
X5.154Y-4.1535
X5.1575Y-4.0354
X5.2362Y-4.2323
X5.2648Y-4.0116
X5.2648Y-4.0616
X5.2648Y-4.1116
X5.315Y-3.9173
X5.3543Y-4.4685
X5.3543Y-4.8228
X5.4596Y-4.1616
X5.503Y-4.3543
X5.503Y-4.3917
X5.5118Y-4.311
X5.5118Y-4.4685
X5.5728Y-4.1535
X5.748Y-4.3543
X5.748Y-4.4291
X5.8701Y-4.4291
X6.6142Y-4.5276
X6.6142Y-4.7244
T2
X5.3346Y-4.0394
X5.3346Y-4.0866
X5.3346Y-4.1339
X5.3898Y-4.0394
X5.3898Y-4.0866
X5.3898Y-4.1339
T4
X4.8819Y-4.0551
X4.8819Y-4.1535
X4.8819Y-4.252
X6.1811Y-4.7441
X6.2795Y-4.7441
X6.378Y-4.7441
T3
G00X4.9181Y-4.4551
M15
G01X4.8945Y-4.4551
M16
G05
G00X4.9181Y-4.7953
M15
G01X4.8945Y-4.7953
M16
G05
G00X5.0677Y-4.4551
M15
G01X5.0441Y-4.4551
M16
G05
G00X5.0677Y-4.7953
M15
G01X5.0441Y-4.7953
M16
G05
M30
